<mxfile host="app.diagrams.net" agent="Mozilla/5.0 (Windows NT 10.0; Win64; x64) AppleWebKit/537.36 (KHTML, like Gecko) Chrome/134.0.0.0 Safari/537.36" version="26.1.1">
  <diagram name="PÃ¡gina-1" id="E-OOJp_5AzMm38WawbOK">
    <mxGraphModel dx="880" dy="426" grid="1" gridSize="10" guides="1" tooltips="1" connect="1" arrows="1" fold="1" page="1" pageScale="1" pageWidth="827" pageHeight="1169" math="0" shadow="0">
      <root>
        <mxCell id="0" />
        <mxCell id="1" parent="0" />
        <mxCell id="-0398Z63P85dClS6kvkM-1" value="" style="shape=image;verticalLabelPosition=bottom;labelBackgroundColor=default;verticalAlign=top;aspect=fixed;imageAspect=0;image=data:image/png,iVBORw0KGgoAAAANSUhEUgAAAroAAACHCAYAAAD5hvpDAAAAAXNSR0IArs4c6QAAAARnQU1BAACxjwv8YQUAAAAJcEhZcwAADsMAAA7DAcdvqGQAAMl2SURBVHhe7J0JXFTl+sd/MzArCgMI4cYmgiuGEi4kqWlimormTXG96u2vZpalodfcEtG8ZpliSi6ZaClSamreJEUoxbBAFgFDRRJcUpRYZBue/3tmBmaGZc6waOWdb58xzvae532W3/uemXNmBMSACRMmTJgwYcKECRNPGELN/02YMGHChAkTJkyYeKIwTXRNmDBhwoQJEyZMPJHoT3SLsxD9+XosXxSEJau34EjyfVRqNjUV5fUjWLPgPURmKjVrtJT9vAtBCzYj5oFmhYknBuW1wwhZuBGn7zVXJj1qlLh2OAQLN57WLDeVUmQnp+Fv0/1moRjnti3E0n2pmuU/h/zYUCx876Dq7+Jz27Bw6T7V383DnxnXMvwWHYYlM8ZgyAA/DBr2D8xauRtxt2tr6xNH8TlsW7gU+1IrNCv+F+uraejWxeOj4bpamp2MNFNgG0g+YkMX4r2DlzXLj4fmGecfne3VE93K+98jyO9pDF24B3GZV5DwdQhe8fHG5PBrLEWbjvLmD/h802eI/q1KoLRUZBxF6KaD+OUPU1I/aShzY7A7NAIXHvxdbgVXIjdmN0IjLmiWmwIT909Gw3vKPmT/T6V2GbJ/+hbfXbytWf4zqERhYiRCd6kH1rLsn/DtdxdVfzedPzOuSlzdNR59X1yJaGUnDB4zDiOfbYc7B9/EgD5T8cWTnmhl2fjp2+9wUTWp/1+tr6agXxePj4bpqvLaJxjtPQX7TIFtGJWFSIwMxa7TNzQrHg/NMs4/Qts1E10lfg1bhk3ZfgiN+wX/PXgQx3+6iK+nmePg8g8RW6rey4QJEw2BUHjndxT+z2m1Aq/sSMH59wdplv98FK/sQMr59zVLTeVPjGvZzwhbfxwW//clTn4WgqB5r+PNJRtwMHoXxldEYNXmn9hlxhOM4hXsSDmP9wdJ2ML/an09+VDhHfxuCqyJZkIz0SWQ80BMfes1vOxipl4ltMWzz3aF+NZv+K1cveqxkP81Xu8/Cev3rsW4px0gF0lg4+GPRUey2XRcTeWdM/hg6nPwsLeAyMwcUlt3DHotHGnGTMgrbyN6XSB82ltCbC6FXaehmP9FGko0m/O/fh39J63FrhWj0bWVFGKLdug7+wukpYRjdn8ntBSLYe0+HKtj7mv3n7AGO5YPh7u1BBKFC/rPDMOFfNVmIO8g5vQPxOKlY9HZxgI2Xu/gdDFnRjTWBfqgvaUY5lI7dBo6H1+kVVuB85unwrejHSzY+awcvTEuOAq3NHXf6P4/OIoFA/ww/4jadjWF+O+iQRjw1hHVkkG7jIhNccoezHveHTZSZneHwVh88g7LLh14/F8/+fj69f6YsGYHlg93h7VEAoVLf8wMu8C2qMk7OAf9Axdj6djOsLGwgdc73LsWZbh2ZBkCvNqghcgcMvvO8J+/D5dYDNQUI2XPPDzvbgOp2AodBi/GyTtVFlfizv5Z8B35PuKrZw8VSPpwDHxnfK5ZZmuyj2PVKz5wUkggktmh60vv4mh2OXLDZ2HKp+kozdyFSb5TsTOLeansGo4sC4BXmxYQmctg39kf8/ddYlaoyT+/GVN9O8LOQgyxlSO8xwUjqirwBmG2nvkAU5/zgL2FCGbMt7bug/BaeBoMp8UDHF0wAH7zj0AvK/67CIMGvAUuVfjyrbbfv2Gx6ochK2LUO/DFIP88Nk/1RUc7C4hZDBy9xyE46pZxt01VZOP4qlfg46SARCSDXdeX8O5RbT5WwdVpvyErNEs8ea7JtUnr92LtuKfhIBdBYuMB/0VHkK2srDuufHndlD7qQvl4UEAwM9O/60xoOwxvfxiM6b1bakS9Erej1yHQpz0sxSxmdp0wdD7TMf5C45zFr8EG/ccwGBce2wz5irOt3xCsiCmpMw5NGhtYbWcfX4VXfJygkIggs+uKl949ymKu3lp27QiWBXihTQsRzGX26Ow/H/uqktgIn/HVflN8Vrf2GYfBfvGMRfVjSFcZlXdw5oOpeM7DHhYiM5ZDtnAf9BrCWaAqc8Mxa8qnSC/NxK5Jvpi6M0t1SPPbyT+mNMrvPLXe1DxqWI43odYM8OjGeV34xu4GxJz7erE6UV6nHSPtSNYnhFIrNOuaQOm5hdRJ7EJzT5Vo1mgp2juGLMTP0YfXlUR3w8hfKqUWLs/T4j3RFB93hIL925Co9TQ6XMDtfZcOBDqQtON4+vhEPCUnx9GR/wSQs0hBAXvuqdqrn3JKXudHCute9OqW4xSXcJa+Wj2KXORuNOv4fdUed8P8iYkMOQ1dQZFnEyhmyzhyElmSreMz9K9tUfRTXCS9009B0r5rtfuLpdTq6Rn0ycmzdGbfYhroICLHfx4izhrlrS00WCwkeY9XaU9sLEUciKE7pcm0zk9B1r1epS3H4yjh7Fe0epQLyd1mEWdG+U//pu4WnWhq2ClKSPmFTnwQQI7idjTzeCF3xsb3X3mLPhtlTdYBe1grGu4foAn2Chqx/SY7sWG7eGNTeIrecJdQq2ffps+jz1F0eBANcDAngciX1mVyScTv//q5S2H+EhJLW9HTMz6hk2fP0L7FA8lB5Ej/PKTyNN3aMpjEQjn1eHUPxcZG0IGYO1QUG0Td5VbsmE107GwcRe2cT752YnKefojusHQrPPUGuUta0bNvf07R56IpPGgAOZgLSOS7TtXmjY8Hksx5Dn1fnbal9MNb7iRTbecWE2iVTwuy8ppJW0/G04VTYTS9uwUphoZScsIhCg5wJlH7UbQ87BAl3i+i2KDuJLd6mmZsOkZn46Jo53xfshM70/RDd0hZ/hP9mx3baWoYnUpIoV9OfEABjmJqN/M4cZE3yN0DFOggpY7jP6YT8cmUzGLzH+7cigAynBbMb5+NImtrtp82KejABHtSjNhON5V8+VaX39NZrKRkP/WwqjXDMSinn/7dnSw6TaWwUwmU8ssJ+iDAkcTtZpIq3Q1SSgmrfKiFlRfN3HqS4i+corDprC3FUAq9WlYdOw6uTqX2U1V/8+a5KtekJG3hQs8v3kPR8azPwf7URtSaprFEL0iqGVe+vG5KH2vyB0XN82Aa1Yp6BLxBaz87Tr/cKGRR0Kc8eR35Kayp16tb6HhcAp39ajWNcpGT26zjLLo88NU5r/8MxaWCxzYeX6lss6ephx/WEYemjA1cKa8inxZW5DVzK52Mv0CnwqYzHVbQ0NCrXBJTUHc5WTGd33TsLMVF7aT5vnYkdp5Ohzgh4R23eGq/ST6rW/vqRqtpKnj6ZXgsqh/DusrcdSCQHKQdafzHJyg+OZnijvyHApxFpGBj072CJDoUzMWtPY1aHkaHEllSPRI7+cYUvjqqy++5hvO3yXnEk+PKG/TxQBk5z/me27lptVYfj2qcr2E739jdkJjXPdFV3qHvF/UmhbwbzY/ilUWjaNBEVyImvw3XqsW7NHoedZA+Q8GXmBOVt+n8vo206wwnDhpKY+jNjlJ6JvgSGZyTl0TRbCcp9VmTrrPfXQofa0OWI3cRJw3qiWtVwBglJ2mWo4icZp2kh6oVSsrd/DxJW89QLan2l/SmkOqrAbZ9+whSWL5EO24r1RNdiZQGh+ZU21sSNZucpH1oTbqOtXfDaayNJY3cdYceRgaSTcv+FPzLA/UxFVn03bZQOpzCMr0p/Wfk7R9P9oqRtPOW+uh7e18m21Yv0142yeGziy82BZGTyE7mRx9U+Y7tlbNtGFlW+dMI/9ePWpQkvXUuvJS5tH2Egixf2kG3lWrRkUgHU2hOlXUFFDHBlmR911Ba9QlZfHaOZLk9iDZdz6fISexizu8D0pqcQ9uGWZLYyImuqv8ST1pyoVS1zFH4fTBNnLGZzpeUU9KKXiTzfJd+KWcbCiJogq2M+q5J0/af9WHnSAXJB22i60WRFGjTkvoH/0IP1IGnrO+2UejhFNYTwyhvn6d9G3fRGU4BNJTGvEkdq+rGEHn7aTy72Bm585Y6rvf20su2rehlLil4860uv6sniuqJLl8Miigy0IZa9g+mX9SdZun+HW0LPUxcuhukNJrmdZCQ55ILLCoaCr+n4IkzaPP54nonurx5rsk1sd8GulbVJdW51H3mhFwvrrx5/bDxfayL0mt0LHgSPetqReYCkEAoIwfPF+m10B/olsqAEoqa7UTSPmtIv4tjycZyJKm6aAieOuf1n8G45PPYxuMr1URAPdGtFYcmaWMpRc/rQBLPJaQt5UL6Pngizdh8npXuBLKV9aU12iRmpbuTRirkNGjTdVLyjVt8tf+wKT6rqwbrQ3+iy9evIkNjUb0U8Orq7fP7aOOuM6oJi5pSinmzI0mfCSbOXeVJK6iXzJPeVQX2UdnJN6bw1VFdfjecv03OI74c15ss8tnfOF16ZOO8nu1844bS8DypBvqff3GUZGDfq89j9OZCjN15GOueV2g2NBGBAAJUorKue5W5CTfbynZRI1DA1c1B8xEcIFQo0FJQgbIydrDQHj6vTIZ3fiTWBM3BlDGD4d1lFEIzlaisrNR/+7wGytxEJN+sQPrWMejRrRu6qV7PYUVsMR5eTkWm5uNpgWUHuLfV3MIhkKOFzBytndpDpFohhFwug0CpfajOzMUPA9w0+7Pt9n184FaWjpTLmn0E1nBystH0R4ncxGTcrEjH1jE9NDaw13MrEFv8EJdTMyEcOAWTHX/GUu82aNdjCCYv+hoFPuMwvGuLJvWfw/rFQAy3OIOD39xm+9/BNwe+h3gYW2fLb5fKPfXGphxZKWkoaOsF7/Y6vujXBx3N1UvG+r9+zODiNwBaV9ujj48bytJToHW1E5xsNNZVXEVyehHa9+0P16pjOJv8fNFFmYGk5EykpBWgrZc3tCbbo1+fjtCYzEMl8lIvIceqJ3y6ijXrAItBSxC+/TX4cLcR6lBxNRnpRe3Rt78r64kGdj4/3y5QZiThktlATJnsiJ+XeqNNux4YMnkRvi7wwbjhXcEibxChvQ9emeyN/Mg1CJozBWMGe6PLqFBkKlnN1Vl0Oli/iMDhFjhz8BvcZjl055sD+F48jK2zVdlnTL7p+V0XvhhcMsPAKZPh+PNSeLdphx5DJmPR1wXwGTccXLobojIvFZdyrNDTpyuqvW8xCEvCt+O1ms6vxsg8Z3qkcHWDgzbRoWgpQEVZ7STlz2tpo/tYJ2JnvLhkD2Kv3EZuyins2/AmXrC+hF2vD8HgoGgUKHORmHwTFelbMaZHlT3d8NyKWBQ/vIxU/kIzUOcVvP4rMRSXXvd4bBM23ldN0cbKPKReyoFVTx9oS9kCg5aEY/trPXE1OR1F7fuivzaJ2en84NtFiYykS1Dd3Wdg3OKr/ZTbTfGZJmPrq8F6qeDtl5mhsag+KrJ4dJXVv88rmOydj8g1QZgzZQwGe3fBqNBMKFmcasvVI7JThYExpdS4OtL3u6Fa5+8HXx5x9hmd47w60Jhaq3gM4zyDd9woh7QBMdcbzyvvxWD1uFewOr0LFn/zBZYOsK92dlMRssmhDEUo+KNmFlfij/w/UCGQQW7BzsZtFpjBTJsHKqrmwKjMRcT0/pi8/yG6+PmhV3c/TBv7Es4tCUKGZpd6KS1lg5glegUuxNTO+icQtuyEDhpvCEQizaRWi4DZVB8CKeubrqPMzFn5EEs8zTLXH/PqHjAzWKQteyFw4VTomyFEy04dYG5tj4/OJWDYl3sReew7nNr+DvZuXI/RW2MQMU2Krxrbf44WQzBxlA3GHDyMnGFmOHCmJUZ88QKs2KabfHYhRd2XemJToVSyXc31kkoglUJStYOR/q8fAaQymV5OmpmzdoiJo2ZZwIzTuroM3PWIuUi/YQGLjzl30aUsh9pkPYshlUq0+cZRI2W5iWPVqvIK1gCzQaR3QD2UKZlMmEPfHAHrA1vBkkVJ1hj+0TkkDPsSeyOP4btT2/HO3o1YP3orYiKm6xR8bSpzIzC9/2Tsf9gFfn690N1vGsa+dA5LgozJihYYMnEUbMYcxOGcYTA7cAYtR3yBF7ikMLLe9P2uC18MCNbDP8K5hGH4cm8kjn13Ctvf2YuN60djawzrk6FOl1ewaSurNaOcr4W3/lR/s7jUK0I1MCKvrYc2so81qLj0FT46Xomhr7+M7hIJ7LoMxHju9foCjJ/tg1Gf7UDUyiVQdzEQC6d21k6sOIQt0Ym/0LgA1VvnvP4rjzcQl1Je26ztDfiKy8n6aMrYwKYY6lIW1RnmMnUSa3JDA/ORunSVaj0w4DPe2mcXEE3xGRK509dXg/XD2y/r4fWPRdN1Ju16sL4Y1NVK5DI96z95Px528YNfr+7wmzYWL51bgvrk6tHYyWFoTGmc3+uv9S/g2dQ8alCON7HW6tGlRz/Oc/CPG8zRRsdcG9/ieKwNGI11t4dhR/RxLG/GSS6HeXs3OEnzkRifwrqgyx84G5cKatMBHS00qwxQeSMCW/bfxaCN8bjw3y/x6fplmDviKZRzX01WPbOsG7PWLnCUF6HYqi8CJ0/GZNVrIoZ6dYCHpxsadDGsgzI7HemFmgVGYUoKrpq5wqPqEkcPM7R2cYS8qBhWfQM1NrDXxKHw6uABTzcF7sd/iY0Hb6HnjJUIO3QOmTlJ2PBcIY6HH0NuduP7r0aK/hPHoE3cIezeGYEfWo3GxIGc4/nsqnpHuj7M4dTRBZKbl5Cap7WjNOMyrrOE5Wi6/5XITk+H1tWFSEm5CjNXj+qrST3MneDiaI4bLB73dVxTnJSMX9EOzm4s51wkuHkpFVqTS5Fx+TqTajXcZIfKSvGwerJbhlu37rJS4xDC1tkRlnmZyNC5A74ibTtmT1yOozcr2QWSZiXD3In13/wGs1n3+6mLkZT8K9DOGU5/xOPLjQdxq+cMrAw7hHOZOUja8BwKj4fjmMGnKipxI2IL9t8dhI3xF/DfLz/F+mVzMeKpchibFtL+EzGmTRwO7d6JiB9aYfTEgeCyoin1poIvBk5/IP7LjTh4qydmrAzDoXOZyEnagOcKjyP82C3N3nUjtHWGo2UeMjN0Hp6oSMP22ROx/OhNzYqaNDXP1ejGlTevca/RfaxJZd4P+JQNatt+rH4iQ41QgR7dnSBkg5BS0Jr5XI6iYiv0DayyZzImDvVCBw9PuDVW6FTw+8/cUFy+FRi2TXG/Qb7SjUOTclVoC2dHS+RlZug8zFKBtO2zMXH5CTixPpvfSEGKfhJDXboutd4YqQlf7XdwaILPGh1PptkG++WEPwyMRfVKEqt5g7paeQMRW/bj7qCNiL/wX3z56XosmzsCT5X/wfrO/cfQDeyjslOFgTFF0og6qjRU63ebnEcNynEzHvsbWGtqHsc4z+AbN1zMcK8BMdecsgKJ/5mN4DhLDBrbC398vxOffPKJ+hV2FJdKuF0y8G3YNhy8kKc+pKFYvoDxw1vh0sapmLLmS5yKv4jEcyfw2buBeGv/fXT6xwT0qe/TRl24qyFBGX7PysID1hnlvZ+xY95KfPOAu5DgDDWAlT8mBdjhwoevIeT7HFZ6SvwetwHTXhiA0cGxKNLs1lDo/lGEBEXgcrESRRn7sWDlYQj8J2P0U3VH1Mp/EgLsLuDD10LwfU4p68TviNswDS8MGI3g2IcQXDmE1XPnYdXxbGYjc/0fOfjtXhlsHB1hJW5C/zWIfSZinMtZrF//I9qPDURfjd8N28XvHesXp2Gs9SmsfWMnLuYrUXL9G7y74gDYfE9Nk/1PuH80BEERl1GsLELG/gVYeVgA/8mjUberbTFi0nDIo0IwNyweeawQi698haDlESjqMx4ve7TCi9PGwvrUWryx8yLylSW4/s27WHHgpmawEULh5ATru6dx4EgWs7cU2SdWYcO3+dXv6MoHjsdohzhsWrwbqQVMpAtSsXvFanz2cwGsrM0glohBhQ/wgBMB2xGYNFyOqJC5CIvPY1VXjCtfBWF5RBH6jH8Znc2v4NDquZi36jiy1YFHzm/3UGbjCEcrw+rAXfkKyn5HVtYDZrsS937egXkrv8EDzmpj0kLsg4njXHB2/Xr82H4sAquSoin1poInBp3NceXQasydtwrH1Z3GHzm/4V6ZDRwdDb19x5APxPjRDojbtBi7UwuYzhcgdfcKrP7sZxRYWWt2qk1T85yNwvpx5ctroYCnjxXI+DYM2w5e0JkY1I24zwz8q8897Jr9T2z472U8UHJri5HzwxbM33gODmPGY5DcCv6TAmB34UO8FvI91F2Mw4ZpL2DA6GAY1UUD8PrPYFycDNv2kM9XutSIQ5NyVY6B40fDIW4TFu9ORQGbNBSk7saK1Z/h5wIrVrqTMFwehZC5YYhXJzG+ClqOiKI+GP+yB5v+88BT+x4tm+CzJsTTcL86w9zQWFSvJFnz6Cr3zrYAZb9nIUsdKPy8Yx5WqgOlejJfIJZATIV4oArso7KTw9CY0og64qn1JudRg3Kcx/4G1ZqWRz/Oc/CN3SLD86SaMVfdqVt6nhZ1NefG7tov8Qv0yW0lUcFnNFIiol4rklSHNAbl3TO0NqAzKcwF1e0LJK2p35y9lFb1sA93M7asNc04pn70i6M8cRl5ybxoWWI5a+QeRS3uTTbmQhJbtCCp2IZ6TAyhRf4KUozaRZyphlDejaGQEa5kIWTHSyVkLpBSu8HLKEpzIPfQiqz1DKo+femPtMBDRn3X/lp9Y/WDnSNIpnmwRfWQi3VvetGvNYlFYhIJJdR2wCI6lqtuT/UwmqwdvXpC9yE8Jd2NCaERrhYkFIpJKjEngbQdDV4Wpba/PJP2zvAkhZkZSVtakkwkIjufuXQwi1nQxP6rqaBLIb1JIupFyy+qb/ZXw2MXX2y446NX0pB2UhJyvhDZUp+pAdRNrn24j8//9aN+wMm694vk15q1LRaRUNKWBiw6RmpXqx8MkLV7lfRdfYuilr9AjjIBmUnlJDGXUlu/NynymqbfyrsUvXIItZMKVW2KbPvQ1IBuJK/+VoUU2jrGlWRCc5LKpSR3HkFL5zxLFlXb2XnzYtfQcGcZmYnlLFZCkjkPp/d/VD/E+fD0m+QuMSNJy+60IKaUmRNFy19wJJmAxVbO+i9tS35vRpLanHLK3DuDPBVmzNaWZClj9tj50NyDWTwP0jAr7kXR4t42ZM7iZtFCSmKbHjQxZBH5KxQ0atdtZiU/FZdCqDdX48svMks08OZbXX7XfRiNwROD8sy9NMNTQWZmUmppKWN5Y0c+cw8Sl+58KPNiac1wZ5KZiUnO/CWUOdPw939UPRFd38NoXMwM5rnKfhm1nnFM8wAqozyRlnnJyGtZomqxVlx58tpwHwvos5ESEvVaQUnVjq+fitzvaOWoTiodNRNbUEs5VwsO9My0rXThD81OLK9jQkaQq4WQhGIp87mApO0G07IoI3LBmDo36D9DceE2GrbNoK8426ofRqsRh+ibTdNGZR7FrhlOzjIzEsvZeYUych7+PqlLmeV51HJ6wVFGAmaXnPVZ2taP3oy8pq4VXp+xFgzWflN8Vo/21UmNb13g65ehscgQBnVVSfeiFlNvG3PWFwtqIRWTTY+JFLLInxSKUbSLC9TD0/Smu4TMJC2p+4IY1THNbyffmMJohN8N13oT84hPj8t1H+hiNKXW6uURjfM1vnWBd+xuQMwF3D9swvlYKbmTjuSMWyhiV0xOXbrDxdqomzZ0YFfb1y/i4vUSKNx6oFsbuWa9sSiRn5WElOxCSNp2hWcHG+0DAA3k3qfD0H55WxzM/AjdMpJwU+KKHl0cINVsN4gyH1lJKcgulKBtV090sNG1ohKFOalIvvIAQjt39Oj8lE6bTe0/DwbtMoKS20i7mIkiu67o6aqo46Pgxvj/Hj4d1h7L2x5E5kfdkJF0ExLXHujiYJSnUZGXicRLtwGHTvB0s611vpLbabiYWQS7rj3hqqhpMbuCzkhAxv2W6OjVBU/V9clDRR6uJKYiV2mPTl4esKs+AYtVVgIu/laJtp694KK61KxAXmYi1OZ4ws1W35rKwhykJl/BA6Ed3Ht0xlPGdZEdWIDrFy/ieokCbj26ofnSonnyzWAMKguRk5qMKw+EsHPvgc5Gd5qD+fNKIlJzlbDv5AUPrfMN06Q8ryuuPHndpD7WpvT3TKRczlHpaPtO3erUUWV+FpJSslEoaYuunh3Q0FI2CK//DMfFoG1G+6pmHNDkXK3Iu4LE1Fwo7TvBy8NOP4aszjMTL+E2HNDJ0w01StcIDNd+k3zWFAz2y9BYZBhDulpZcB0XL15HicINPbq1Qc1IVRZkIeHib6hs64lnuMByNKudxo8pDfY7X/42KY8arsfNU2s1eCTjfG0Mj93GxfxPmeg+SVRPdK9ux4tG5oeJxqAVpavbXzRaaE2YMGHChInamMaU/xVqT8JNNAiBQAgzoc5Xo5l4RDAfC80gZI42udqECRMmTDQN05jyv4LpHV0TJkyYMGHChAkTTySmd3RNmDBhwoQJEyZMPJGYJromTJgwYcKECRMmnkhME10TJkyYMGHChAkTTySmia4JEyZMmDBhwoSJJ5K/xkQ3PxahC9/DwctKoPgcti1cin2p6l9EaQ5Ks5ORdq/qZzseFZW4c2oT1h2+BtWPFT1mCn/8BAuXf4m05nPbX4R8xIYuxHsHL6uXYkOx8L2Dqr/5ckV57TBCFm7E6WaMvfLKV1j11pt4803uNR/z31qAoKWrsTniPHK5n2epQnkZB1e+hXe2/ID7mlXVVCRhz5KF2HpW88OTFYn4bNECfBzdyF8d1KDX30dQR0ZT77mVuH5kDd5mNp6686jrUR9l9jGsnDQUfs8OwvTtaWiKV4rPbXvktfYocrfZaFJuFePctoVYui9Vs9x0GqTvpUkIX70L8To/2W40lflIO/oxFk4bg6ED/TBoxCS8vfG/uGrMDwTWixLXDodg4cbTmuW/KMprOByyEBtP39OsaCKl2UhOu8dGzcZSiuzkNKjD3vw59T9H4Y/4ZOFyfPnkTSBU/CUmupWFiYgM3YXTN5iTy7Lx07ff4eLt5pkuKq99gtHeU7Av+9EOGJW3IvH2nK8gdHfk/xm/ZqcSRUlfYfOnUbj2pOVpZSESI0Ox6/QNbgGFiZEI3aUZFHhyRZkbg92hEbjwoPm+WKTit2h8tnk3vv/1Lu7du4u7d3Jx5Zfj+Ohfz6JL7//DgSyNLRW/4dTOj7H+zen494kaU92KX3Hik834OqlYLfRlGTi+ZRMO/pyv2txY9PrbzHXUIOo7d8lZbHwnBFHkiZ72j1N6inF06XSs/sEc/QJGY0h3hyYJ38OUQwh9xLX2KHK32WhSbpUh+6dv8d3F25rlptFgfZe4wSV/E15dfgYNmuuWpiDsHz3Ra2IoUqTdMSRgLF7oosSZ1S/hmcEr8UOjS1eJ3JjdCI24oFn+i6LMRczuUERceKBZ0QTYpPmT0d6Ysi+7kRNddnHwyWh4T9kHddibN6f+F6ksSsJXmz9F1BM3gVDz17t1QfEKdqScx/uD6vr5qYZDhXfwe+GjneQCRYhevRTnngvCrM6Pf5r7P0sz54rRCJ6C/5Kd2LNnD/aE78PBYz8i9ZfPMbLwM/zfzC3IrB7/BTBHFnbM+zdqznUfOX+WbzjqObfyxh1Yv7IV4cEDodCseyxUFiA3twCth83HyrfnYUJva9M9W02hSbmlwCs7UnD+/UGa5abRcH2Xo+9bb8Bl/yJsTDZ2UC/DhZCpmP99Oyw5eQHfbl2JBfPewKJ1X+CHk++ha3IIZq89z/YyYRRUiDu/Fzbh3VxC4Z3foQ178+aUiSePx6j3Fcg+vgqv+DhBIRFBZtcVL717FNk13xTI/xqv9xuCFTEa2ai8jeh1gfBpbwmxuRR2nYZi/hdpqPq0KP/r19F/0nrsXTsOTzvIIZLYwMN/EY6whitzwzFryqdIL83Erkm+mLozix1RidvR6xDo0x6WYnNI7Tph6PwvkFb98VM+zm+eCt+OdrAQi2Hl6I1xwVG4ZaAqK3O/wIZ9Zhj7z0Fowa3g+tB/EtbvXYtxTztALpLAxsMfi45ka29rKLuGI8sC4NWmBUTmMth39sf8fZdQrNqYj69f749Ja3dhxeiuaCUVw6JdX8xm/U4Jn43+Ti0hFlvDffhqxNzXMYzy8GPwCHhYiyG2dMazM8OQUKDelHdwDvoHLsbSsZ1hY2EDr3e4d0X5fGEMlbhz5gNMfc4D9hYimLEY2boPwmvhaVB9kq/yxQSs2bEcw92tIZEo4NJ/JsIu6LwFwhPjeqmRK8UpezDveXfYMH9ZdRiMxSfvMEnUwaDPm4bEdQI+DB4NUcx2fJZYNYCawfOf8zAgbyfeWHKi9i0MTcRgf/V8k4eDc/ojcPFSjO1sAwsbL7xzmvWaz+8V2Ti+6hX4OCkgEclg1/UlvHu0KocN1HPNGtb43dtvKt5bPRPPe9WR6+v3Yu24p+EgF0Fi4wH/RUdqa0MVRafw7uB+mL5b9x2hMpxfMwL9Z+/XLGuouIgNL7+IdfFluP31XPTr+zq+ZqlXeTsa6wJ90N5SDHOpHToNnY8vdBPfYN8ZdB9x77+MHk/JIOY0Z8gCfFX1bn7lHZz5YCqe87CHhciMtW8L90GvITxN994Wffhyl9dePfh9WnnnDD6Y+hw87C0gMmO1b+uOQa+FQ2uikfFV1fckrN21AqO7toJUbIF2fWcz21IQPrs/nFoyLbJ2x/DVMVBLFWdbPwxZEcMtMAxrUMP1nUu3I1gW4IU2LUQwl9mjs/987LukrXKhwxhMGZSNbRtPQCOPhin6L7Z8moy204KxwKelZqUaaY/XsWbtWxjfQ6LWO97YFyNlzzw8727DfGWFDoMX4+QdvUgb1tOaqPxvSF/rrn0+H7GExJ55z8PdRgqxVQcMXnwS1WayPu6f5YuR78drJ/cVSfhwjC9mfP5b1Yq686c8F+GzpuDT9FJk7poE36k7wZUNrz3VVCI3fBamfJqO0sxdmOQ7FTuz8potp9Q0bFysvLMfs3xH4n2mMVVUJH2IMb4z8PlvLOk1NWJwPqCHMZpYhmtHliHAqw1aiMwhs+8M//n7UOUydR/XYteK0ejaisXQoh36zmZ9SAnH7P5OaMnmNtbuw7E6RndUIuT9GIwRHtZsfmEJ52dZHmknEJjTPxCLl45FZxsL2Hi9A/UQYqwuFeHUu4PRb/puzbvwasrOr8GI/rOx/7bOSg4jcow/jjpwPxjxOChNWEU+LazIa+ZWOhl/gU6FTafuFgoaGnqVlDc+poEyZ5rzfQnR3TDyl9rT1MMP2VHllLzOjxTWvejVLccpLuEsfbV6FLnI3WjW8fuqdu+G+ZNU2oJcnl9Me6LjKe5IMPm3EVHraYeJCpLoUHAAOYva06jlYXQo8T6VJ68jP4U19Xp1Cx2PS6CzX62mUS5ycpt1nLgWy3/6N7OrE00NO0UJKb/QiQ8CyFHcjmYeL1SdrzZKuhE6hFq6vEanmPkqVH2QUguX52nxnmiKjztCwf5tSNR6Gh0u4HYootig7iS3eppmbDpGZ+OiaOd8X7ITO9P0Q3dYi3cpzF9CIpkTDV0RSWcTYmjLOCcSWdqS4zP/om1RP1Fc5DvUTyGlvmvTWXtKurVlMIkFZmTtPYc+jTpHMfsW08CnROQ88yjlVW0XyqnHq3soNjaCDsTc4fWFUdw9QIEOUuo4/mM6EZ9Myayv/wlwJpEigPbc47YzX0jEJG3F+vrJSTp7Zh8tHuhAIsd/0iFuO1+MlTfo44Eycp7zPduX+frjgSRznsMdqJ8rhafoDXcJtXr2bfo8+hxFhwfRAAdzEoh8aV1mBduZz+fGUXL6dXIVe9CCH0s1a7Qob22hIRIJvfDJLbZjFM12lJD3qiRK2+JPtmJ3mn0iT73jw4MUaC1l+91Wn7foSxrXUkz9119VbTYKvv7q+kZ5i7YMFpNQ3oNe3RNLsREHKOZOKU9tlVLCKh9qYeVFM7eepPgLpyhseneyUAyl0KsVButZ79xG5bqUpC1c6PnFeyg6Po6OBPtTG1FrmqYuljrIo/2vtCJZv/cpnQstR8lper1DCxr4UQ0fsr6f+/JDmtJVTHaDg+iTHd9SWmEyrfNTkHWvV2nL8ThKOPsVrR7lQnK3WaSWFcN95zRHwmrtqQHvUPiZBLrw7Xoa1V5ET005pDrl3QOB5CDtSOM/PkHxyclMk/5DAc4iUgTsIVXK14QvluV89taEz6d36UCgA0k7jqePT8RTcjLb/h9OJxUUoCpaw3qtF19VfYtI5jSUVkSepYSYLTTOSUSWto70zL+2UdRPcRT5Tj9SSPvSWlWw1LbZT2X6zODToIbqOxXFUlB3OVk9PYM2HTtLcVE7ab6vHYmdp9OhO9oqv793LFk/NYm+qi/FdCiNC6IuIjua/HWRZk398MW+8NQb5C5pRc++/TlFn4um8KAB5GAuIJHvuqoGDOtpTVT+N6CvddV+1hkeHxXSqTfcSdLqWXr782g6Fx1OQQMcyFwgIt91maxNrSZXDXlU+gO95S5Tb+cW682fZEo6FKzySftRyynsUCLdNzJmVRQkHaJgziftR9HysEOUeL8Zc8qI42uiN3/RUPrDW+Qu09ViQ/OBmvBrYlFsEHWXW9HTMzbRsbNxFLVzPvnaicl5+iHiXKbSKJGMnIauoMizCRSzZRw5iSzJ1vEZ+te2KPopLpLe6acgad+1qva4sWuwWEBm1t4059MoOhfD5dFTJHKeSUfZsKXeLiR5j1dpT2wsRRyIoTulDdOlvP2vUCtZP3pfK9p0+vUO1GLgR8RkVR8jcowvjro8poluKUXP60ASzyV0oXp+UEjfB0+kGZvP1z/R5SYLTlLqsyadtH64S+Fjbchy5C66wy1xARX70YZrVQWhPpf0mWDVUnnSCuol86R3fylnSyUUNduJpH3WaAdIxt3wsWRjOZJ2sQYfRgaSTcv+FPzLA/UkpCKLvtsWSodT6lPEIoqcaEvyYZ8yyzRoxMdvw7XqCVRp9DzqIH2Ggi+xExdE0ARbGfVdk6btlzKXdo5UkHzQJrqu5BJdQmImfqo5GqPk5CxyFDnRrJPc5IHB9t/8vJRazzjKLagmshLps/SfjKoWlZSzbRhZMoH8/F7V9sEUmlNlEb8vjEF5+zzt27iLzugIUmnMm9Sxqq8qX0iod0hqdV+VudtphMKSXtrBJnp8MTZyolsQOYnsZH70QZXDqvov1ogNr88163gwNNFVTVgtRfRMcKo6d1UTXdbvil8pdKgtid1nk2qu2wwTXd7+6taRarCTkHRwKGnDz+P30mia10FCnksusIrSUPg9BU+cQZvP/2GwnvXObWyu+20gbQlz55YyP17SrKjNH4emUmtJL1qRxNU1c+F3s8jJyp+23qgjkKpakZHL3FMq0SyJmk1O0j60Rj/xaayNJY3kEt9g30tY9zjNYbVW7ftSOrvAg6Teq9jfSrp9fh9t3HVGNeCoKaWYNzuqNIkriZrwxZLX3lrw+FR5m87v20i7zuhc4JXG0Jsd1dvZZYzx8VXVt1g1+KitK6GTsxxJ5DSLtFK1mZ6XtqYZR7kVupMSfg1qmL5z6TaBbGV9aU2atkFl7k4aqZDToE3Xq/tbkbqKvKWsjs/WUcc1eHh0BrUWdaZ34vj25Yt9AUVOsiOZ3wfVuk7KHNo2zFKl9apFPj2ticr/BvS1jtrn9VFBJE2yk5HfB1Ux5czcRsMs1XHmn4Tw5E95Eq3oJSPPd38hLmrGxkxLOSWt6EUyz3dJHfbmzKmGj4tGTXQNzQdqwaeJBRQxwZZkfdeQ1mVKyt05khTyQbSJDWbqPmrOz1FykmY5ishp1klSlyXbf/PzJG09Q73ETWQlUnr2Pxk1Ys4ufj+/V719cGhOdR8arEt/HKKprSXUa0WSKu5MtGmWkxX5b71RO8ZGTnQNaYMuj+fWhco8pF7KgVVPH3QVa9bBAoOWhGP7az6a5doocxORfLMC6VvHoEe3buimej2HFbHFeHg5FZma97QFCle4OVR1RQiFoiUEFdqPEapR5iIx+SYq0rdiTI+q9rrhuRWxKH54GamsQenAKZjs+DOWerdBux5DMHnR1yjwGYfhXVU3JdSm8i6ybxTC0sGB9UgHgQKubtqHXoQKBVoKKlBWRqi4moz0ovbo299V++Ca0B5+vl2gzEjCpXJuhQCWHdzRVrODQN4CMvPWcGovUq8QyiGXCaCs0L5Nb+bUB77OVS0KYd/7GXQoSUPyZbUvBNZOcLLRWGSEL4xBaO+DVyZ7Iz9yDYLmTMGYwd7oMioUmcpKVFZqPusyc4HfALfqvgrt+8DHrQzpKZdRamSMDVOBrJQ0FLT1gnd7nf7364OO5uol43zeRMqZzWUCyOV6mcD674b/2/weBt7bgXlL/qv5CLcp8Pe3NgJYOzlBG37Dfr98KxWXcqzQ06crtCU7CEvCt+M17yKj69nYXFe4ukFbwgooWgpQUVZ/8FsOGY8R9sk4+EUC80YRovcfxR8DXsHo1lWN1IcSuYnJuFmRjq1jemj6zV7PrUBs8UNcTs1ESZ6Bvvuo70sVKDrAvao4me8tLVtAUMp9ZMfi4PMKJnvnI3JNEOZMGYPB3l0wKjQTykpWE7qfUqvgiyW/vXV7yYBPmf99XpkM7/xIrAmagyljBsO7yyiEZipZzVaCGqrXAkt0cG+riS/L/xYymLd2glaq5JAJlNCRKjVGapDR+s58eTU5HUXt+6K/a3W2se76wbeLEhlJl1BV5mZt28IBN3E9m/8+XYEFs595uaSej6618MS+PAspaQVo6+UNbajt0a9PR1SVrVF6WhMD+qrunW7t8/voYVYK0grawsu7vU6b/dCnfnHRp0H5Y3zMjKKpOdVM42ItDMwH6sZA/VZcRXJ6Edr37Q+ty1ju+fmiizIDSZrBTGCpo1ECOVrIzNHaqT3UZSlk45QMAqVO/ps5oY+vs07Me+OZDiVIS76s1hiBNZycbDR9aIQutRyC8SPskXzwCySw0xZF78fRPwbgldGtq/3SUIzVhsa230DKVSJnbiZi4WsApaXMWZboFbgQQUFB1a9l68Owa80/0EFTdwIzM+0gqqK+s5SilPnAslcgFuq0F7RsPcJ2rcE/uAath+Kjcwn4dusCjHApxLnt7+BlHy+M23m17vtpqBzlFQKIxBL9swqYTfpGabeXMdFn0ibS0w0BzMzZCiaISlXuszZFmpGiGgHXbP2IxBDpRpS1xy2SppY4P5lXG2GEL4ygMjcC07298Y/3IpGYJ4Gr3zSsXD4Ojrp2CKSQyXRXMDtYP4j11dgY81GhZNERmlcPGBwCqRSSqv4a5fOmUZaSgsvKVnDzcNCs0WLm9n/4+L2BuLdjHt6NKtC/d7gR8Pa3FqyvZubsXw18fqcKlu/mMBPV1WAD6tnIXDert1jqQT4QgaPb43Lkl4jLi8KBb0sxZPxIPGWEopWqEx+BC7X9DgpahvVhu7DmHx1gXm6o72oEzJd6XaqmErkR0+Ht/Q+8F5mIPIkr/KatxPJxjvWKLV8see1V71YDAz6tzEXEdG94/+M9RCbmQeLqh2krl2NcddE2UK8FIqZVmr+rELDza/6sH+M0yHh959KNjaDmIn2fMNFUp5tSW3ci5l/zClSU81eiqHM3uItykJryO4tuTZTIilyFxR/9F9fZZNRw7FleqUKtF2lIpdqxwyg9rYkhfVWhX/u8PmLBVzKL9c2UQlpDXPQ9x13EVa1pWP4YHTOjaGpONXZcrGEl8321OzgMzQfqxJAmlkHtMn1b1JrE4qAZzASsKGuXZY029RBBrD+BgDm3qJ1AMN3WWt1wXZJjYOBotL8ciS/j8hB14FuUDhmPkQZEW9+rujmmxlhtMFQ+zYfQFs6OlsjLzNB5qKsCadtnY+Lyo5rl2pi1doGjvAjFVn0ROHkyJqteEzHUqwM8PN2q350yCBPcasxaw8VRjqJiK/QNrGpvMiYO9UIHD0+42QD34r/ExoO30HPGSoQdOofMnCRseK4Qx8OP1f1AmpkNWjFDCu7fr3siXAfmTqxf5jeQknJfRziLkZT8K9DOGS41s9NIlDmX8avOd+YUJCcjy9wF7nUVJ68vjHFuJW5EbMH+u4OwMf4C/vvlp1i/bC5GPFWOP1jHqnVWmY30dB3DClOQctUMrh4dIWmOGLOScuroAsnNS0jN03q0NOMyrjNB4HhUPq+m8nd8uyMS154ahgC/up5GN4P7/32MlQPvYvsb6/BzqX7BNgz+/vLBV1ut7JzhaJmHzIxbWn9VpGH77IlYfrzM6Hp+dH6XoN+EMXC9fgzh68NxAsMwYTgrYF7M0NrFEfKiYlj1DdT0m70mDoVXBw94MhEwtzXQ96M3NSvqofIGIrbsx91BGxF/4b/48tP1WDZ3BJ4q/4O1xf1XE75Y8tvbUBGvvBGBLfvvYtDGeFz475f4dP0yzB3xFMqriraRet1gmkODdPWd8yXzlfkNpi+6H5sUJ0Gdbi7VA39lfh4eVFjD1ra+iYsWoR2r6eckOBe+G6lsbNejNBG7QlZj89Ff2cSSJ/bmTujoIsHNS6nQhroUGZevM+9yGKmnNTGgr7V7x+8jmVNHuEhu4lJqnjZfSzNwuVpcuEkboaz0oXYiUnYLt+5q9ubNH4HOdMT4mOmiF3ZdmppTjTmem2xRGUofajW97NYtVLmj2WF55OJojhspKXqfDhYnJeNXtINz4ycQuKw/gUByljlc3OuatDZOlyT9JmCM63UcC1+P8BPAsAnDUbdq8+RYA2moRjYSNpMfPxoOcZuweHcqCljFFqTuxorVn+HnAivNPnVg5Y9JAXa48OFrCPk+h0mCEr/HbcC0FwZgdHAsijS7GUIglkBMhXjwgCtSK/hPCoDdhQ/xWsj3yCllsf09DhumvYABo4MRWySE4MohrJ47D6uOZ7PzsfL8Iwe/3SuDjaMjrOr0Vkt4solBaeYlXDFykgHbEZg0XI6okLkIi89jElCMK18FYXlEEfqMfxkehi66DEAPjmHNvw8hq6QShZfC8dbKoxC9OBkjW9VlOJ8v2C4ll3A0LAxfJ9b/JZHcVaWg7HdkZT1goqjEvZ93YN7Kb/CAuzKu+qiP7uNoSBAiLhdDWZSB/QtW4rDAH5NHPwVhM8SYw/rFaRhrfQpr39iJi/lKlFz/Bu+uOICbVXVhhM9LLh1FWNjXMNBdDeW4/1s6UlNT2SsJP52OwIZXR2BGeAVeWrUE/vXc5QIzd8z6+D0M+IMNGsUGJrpG+J23v3zw+V0+EONHOyBu02LsTi1gg2wBUnevwOrPfkaBVVvj6/kR5TqH+JkJeLnTVexc/w3EL47HEP0H4uvFyn8SAuwu4MPXQvC9OvERt2EaXhgwGsFc4hvsu7Wmlfrg3r0WoOz3LGQ9YMFQ3sPPO+Zh5TcP2GShtM5vEuGLJa+9DYV790xQht+zsqA28WfsmLcSahM5Cxup1w3GCA3iQV/fuXSbhOHyKITMDUN8HltXfAVfBS1HRFEfjH/Zgw2fasovXUKmWSf08OQmBRXI+DYM2w5e0JmA6iBsj0nL30S31NV4edJ6nLjMcoKtLs35AZv/ORHr0zthzrJpcDbji701Xpw2Ftan1uKNnReRryzB9W/exYoDN6snlEbpaU0M6atmF114fWT9IqaNtcaptW9g58V8KEuu45t3V+BAVUIKFXByssbd0wdwJIsFrTQbJ1ZtwLf5VZrGkz8CMSRiQuGDB8zzxsdMiwBiiRhU+IBdrGhWVdPUnGr48UKFE5ys7+L0gSNQu+MEVm34FtXuaHZsMWLScMijQjA3LB5ql32FoOURKOozHi83fgKBY2v+jUNZJagsvITwt1biqOhFTB7Zqs48apQuiZ/BhJc74erO9fhG/CLG1yfavDnWQDT36j56lHkUu2Y4OcvMSCyXkUgoI+fh79OP97n7juv71gW27W4MhYxwJQuhkMRSCZkLpNRu8DKKuq2+AZm7IVnWegYd0zz4wN2onrjMi2Rey9SLD0/Tm+4SMpO0pO4LYrgGKSZkBLlaCEkolpLEXEDSdoNpWZTmwaDyTNo7w5MU7HJC2tKSZCIR2fnMpYNZdd00rqb07ALq1GIQfVz1RBPXB1lrmqE1isoTl5GXzIuWJaofmlDeiqLlLziSTMDOI2f9krYlvzcj6Vr1zfUyaj3jmObGcXaOHxeQh6wvrf21yo4HtHOETHMDvvphM3nHkTR1YGuSSKXMvyJy8Ps3nbjJ2aTeLmv3Kp3Q3i/P74s7W2moRER91/6q2r0ulPeiaHFvGzIXismihZTENj1oYsgi8lcoaNQu1o4qntbU+0U/ai0WkVgkJEnbAbToWG71DegGY2zkw2jctrvRK2lIOykJRWISiWypz9QA6ibX3pBv2Odcd4eSRKTr49qoHkYzU11kql4C1pbY0oE8+gfS8q9/rY4X6T6MplmlpoIyNr9ANsxf9T6MZoTfefur6xvVAykyavfqCe2N/Qy+2lLmxdKa4c4kMxOTXCYiIavR4e//qH7y2EA916rhBuY6KxZa5iUjr2WJmhX1UU4pq54hsbkrzT1VfXRtajyMxlbQ3ZgQGuFqQUIWB6nEnATSdjR4WRRpum6w73VpTsp7vUjWfQn7W0n3ohZTbxtzVlMW1EIqJpseEylkkT8pFKNoV9UJ9ODLXX579eHxqfIeRS3uTTbmLO4WLUgqtqEeE0Nokb+CFKN2qds0Nr7c33paV0o/LvAgWd+1pJWqnTRCVpUPnG3aJ+T5NKjB+s6OuhW1nF5wlJHATEpy5itpWz96M/Ka+gEYFeWUsLQHtfRbr3korIA+GykhUa8VpHm2sQ6UlBu1igK6KEjE8ljSwoLEbIxo2WEYLfnmuqbGjYg962/0yiHUTiokEdNDkW0fmhrQjeRVD6Px6alqLx1UsTCgr3XWPr+PlHejaeWQdiRl44iYjYG2faZSQDd59YNApSlbaYyrjITm7HipnJxHLKU5z1pUbzeYPywrT7/pThIzCbXsvoBiSo2JmT4PT79J7hIWh5bdaUFMbvPmFN+4WItSStk6hlxlQqZtcqZxzjRi6Rx61kJHi3nmA/oYoYksrlHLXyBHmYDM2DklLA5t/d6kSM1gVquPpT/SAg+ZakzRluUIktlPVf2tethM3pFGTh1IrSVSkrI8Ejn40b9P3FT1WbVd1o5e1Z9ANFCX1JSnrKJnxObkyvRY65Ha8OUYbxx1EHD/qGa8j4mKvCtITM2F0r4TvDzstA97GESJ/KwkpGQXQtK2Kzw72Bh5nJrKgiwkXPwNlW098YyL+h0JZX4WklKyUShpi66eHWCj12AlCnNSkXzlAYR27ujR+SlINVvqRHkZHw72xZGRcYia36GOK9D6qEBeZiIu3QYcOnnCzbYhvaqHykJcT0hEjsgVT3u2YdfW/NTvi0rc2TYG/8I2HP6/pzTr6qCyANcvXsT1EgXcenRDG92T3vsUw9ovR9uDmfioWwaSbkrg2qMLHGo5tGkxrqbkNtIuZqLIrit6uirquBI14PPKO9g25l/Atq/xf8bc7PnIMNLvHLz95YPP78xfVxKRmquEfScveNjV2Gp0PT+CXOf89NkYdP6PB44lvI8+DW1SmY+spBRkF0rQtqsnOuiLAMNw3w1RWXAdFy9eR4nCDT26GVeHvLHktbchVKLg+kVcvF4ChVsPdNMrWi2N0+uGY1iPDVOXvjPDkZl4CbfhgE6ebtBLt7KfsNg7AFcXJ+CLCfYNrJlS/H45GRk3i2Fm2wHdu7RFixoNGBP7kttpuJhZBLuuPeGqqNVA/XpaE6P1tQ4M+UhFCW6nXURmkR269nRFTTNR9jsyEjJwv2VHeHV5CnXdsFVv/rA+ZiVcxG+VbeHZy0X9aSmvPbqw/M1KwMXfKtHWsxdc6vi4tSk5xdHQ48t+z0BCxn207OiFLk815sdUGk5FXiYS1aIKTzfbZqhPNve5noDEHBFcn/Y0nHtVNFCXKu98hjGd/wOPYwl4n0+0jcgxY3jsE90nlYL/zob3AgvsjF8PX2NE5u9AyTmsCNyFThu3Ynz72kJiFNVCfBXbX/xrO6bk3AoE7uqEjVvHo7HdbRaaw+9POtynqA8TEDx0CI4Nj8EPi7s04ALTxP8yeV9Ngc/7HbA/djl6NX1m8OfyN9JXE//rqEQbCcFDMeTYcMT8sBhdHpNom0bRZqLlkGBsePYM1uy8AmMfSvvLI+2NZQfDmjbZEgggNBOy/9X39MBfB2nvZTgY9idPcjmaw+9PNBWIX9YLljY++E/Jv7BmjmmSa8JISuOx8aMsTPx44d9/ksvxN9JXE//bVMQvQy9LG/j8pwT/WjPnsU1yOUzv6JowYeJvhzL/Oi5dK4FDFw804I4CEyZMmDDxZ6DMx/VL11Di0KVBt4E1B6aJrgkTJkyYMGHChIknEtNnoyZMmDBhwoQJEyaeSEwTXRMmTJgwYcKECRNPJKaJrgkTJkyYMGHChIknEtNE14QJEyZMmDBhwsQTyV9voqu8jiNr3sbCjadwp+p3EetAee0wQhZuxOl73E7FOLdtIZbuS1Vv/NugxG/H3sfbCz7AiVwDnTXxeCk+h20Ll2Jfaq3fl3y81LKjFNnJaVClfKN4NHWivH4Eaxa8h8jM2l+sV/bzLgQt2IyYB5oVj4L8WIQufA8HL7PzP4LYlWYnI63xTv/zUF7D4ZCF2Hj6nmaFiT+Fv4qeNBklrh0OYWPzac1yU2mqnj1K8hEbuhDvHbysWTbxd+YvN9EtObsR74REgTx7wt6AdcrcGOwOjcCFB9yXRpQh+6dv8d3F2+qNfxfK4hEaFIwTZZ7wcTC9uf6XoSwbP337HS7e/pO/EVnPDjbIfDIa3lP2IbvRA8OjqRPlzR/w+abPEP1b7YG8IuMoQjcdxC9/PLrRrLIwEZGhu3D6Bjt/M8dOee0TjPaegn2Nd/qfhzIXMbtDEXHhUV5lmODlr6InTUaJ3JjdCI24oFluCs2hZ4+QykIkRoZi1+kbmhUm/s78xWZXSty4Y41XtoYjeKBCs84YFHhlRwrOvz9Is/z3QJlzG1Zjt2Df2iGwMc1z/zooXsGOlPN4f9Dj+RnHetGzg1B453cUNmlQ+HvWSYNo5thR4R383jSnm/hf56+iJ38pmkPPTJgwjsc4vapA9vFVeMXHCQqJCDK7rnjp3aPI1lzkll07gmUB3vCb+h5Wz3weXv7zse9SsXojozhlD+Y97w4bqRhWHQZj8ck7rFSqyMfXr/fDkBUx6sXiFHw+dxDcbaQQt2iHvjNDsX7Wsxj3cYp6O8pw7cgyBHi1QQuROWT2neE/fx90Tmcklbhz5gNMfc4D9hYimJlLYes+CK+Fp6FUtT0f5zdPhW9HO1iImd2O3hgXHIVbmuJW3kxGTNRPuFKmXq6XimwcX/UKfJwUkIhksOv6Et49ms0uCzh4+pL/NV7vPwlrd63A6K6tIBVboF3f2fgiLQXhs/vDqaUYYmt3DF8dg/sau9Sx8EKbFiKYy+zRuUYs6qTyDvbP8sXI9+OZRRoqkvDhGF/M+Pw3tsDFqD8mrd+LteOehoNcBImNB/wXHanOgfrI//p19J+wBjuWD4e7tQQShQv6zwzDhXz19ryDc9A/cDGWju0MGwsbeL3DfbRWidvR6xDo0x6WYnNI7Tph6PwvkFaiPoajIvs4Vr3iAyeFBCKZHbq+9C6OcsZwPus3BCtiND0pu4YjywLg1aYFROYy2Hf2x/x9l2DYIyw39s+C78j3Ea91CJI+HAPfGZ+rllT9mrQee9eOw9MOcogkNvDwX4QjVQ6ptqMEueGzMOXTdJRm7sIk36nYmaVkLj+DD6Y+Bw97C4jMWB9t3THotXCkqZIvDwfn9Efg4qUY29kGFjZeeOf0Tf06abY6MJbG5wCfflRTM3aVtxG9LhA+7S0hZvVp12ko5n+Rhqo0MBSDytxwzJryKdJLM7Frki+m7sxiR/DnVZ2o6nAC1uxYjuHu1pBIFHDpPxNhmiSuvLMfs3xH4n1tsrDy+RBjfGfg8980hcnTF0739sx7Xq17Vh0wePFJ3NH7lvRG2m6UdtenF5qYr92FFaO7ohXTb4t2fTGb2Z0SPhv9nVpCLLaG+/DViFEJkHr/CWt2YPlwd1hLJFC49MfMsAtsi5q66t1wLdSnEXXw4CgWDPDD/CP3NSs4CvHfRYMw4K0j7G8ezc87iDn9A7F46Vh0trGAjdc7OH1TPyf59DX//GZM9e0IOwumzVaO8B4XjKiqQaMeGqeRfPVfjJQ98/C8uw0bN6zQYfBinNRJKGNytm6NLa9Tz3jtyT+PzVN90dHOguWMFRy9xyE46haLiCH4xmgjYePbmQ+m4jkPe1iIzGAutYX7oNcQXpVg9cJTcw0dn3l0pG7dL2bSEY11gT5obylmttuh09D57BzawjeYc43uu4aiU3h3cD9M352tE6synF8zAv1n79cs16C55xPcD0Y8DkoTVpFPCyvymrmVTsZfoFNh06m7hYKGhl4lKoqloO5ysnp6Bm06dpbionbSfF87EjtPp0N3lESFp+gNdwm1evZt+jz6HEWHB9EAB3MSiHxpXWYFa/0uhflLyX7qYfZ3AUW97k6SVs/S27tPU1zMflrm357EQnPq/E6cypai2CDqLreip2dsomNn4yhq53zytROT8/RDxJ3OaO4eoEAHKXUc/zGdiE+m5Lgj9J8AZxIpAmjPPaLyn/7N+tiJpoadooSUX+jEBwHkKG5HM48Xqg4vOT6T2sqG0tY7qsV6KKWEVT7UwsqLZm49SfEXTlHY9O5koRhKoVcr+PtyN4z8JSKSOQ2lFZFnKSFmC41zEpGlrSM9869tFPVTHEW+048U0r60Np35ki8W9aG8QR8PlJHznO+pRLOKSn+gt9xl5Lsuky2oYyRt4ULPL95D0fFxdCTYn9qIWtO0wwXq/evhbpg/ScRSasVs+uTkWTqzbzENdBCR4z8P0T1S0q0tg1l85dTj1T0UGxtBB2LuUHnyOvJTWFOvV7fQ8bgEOvvVahrlIie3WcfpPtdoaQKt8mlBVl4zaevJeLpwKoymd7cgxdBQunqb+UxqT1MPP2Q7FlFsUHeSWz1NMzYdo7NxUbRzvi/ZiZ1p+qE77Oz1oaQbHw8kmfMc+l7rEPrhLXeS+a5TLXH9kkpbkMvzi2lPdDzFHQkm/zYiaj2Ny2PVDtV2FCQdomAut9qPouVhhyjx/l06EOhA0o7j6eMT8ZSczPz5nwByFikogEs+5S3aMlhMQnkPenVPLMVGHKCYO3d06qT56qD03ELqJHahuaeqO1pN0d4xZCF+jj68rkrGRueAIf1Q3viYBsqcaQ7naB2fsQqk5HV+pLDuRa9uOU5xCWfpq9WjyEXuRrOOq7LAcAwKkuhQMOfT9jRqeRgdSrzPn1f1oapDMUlbsTz65CSdPbOPFg90IJHjP+kQFy7dPmgo/eEtcpdVaRxfXwrp1Bsa3fs8ms5Fh1PQAAcyF4g09cdaaKTtTdJuVcwlJJI50dAVkXQ2IYa2jHMikaUtOT7zL9oW9RPFRb5D/RRS6rs2vXp/sbQVy8tP6OTZM7Rv8UByEDnSPzlH1Vnv6YZroR6NqBNWN5+NsibrgD3MEg33D9AEewWN2H6TmWdY85W3ttBgsZDkPV6lPbGxFHEghu7c0clJPn+V/0T/ZjrUaWoYnUpIoV9OfEABjmJqN/M4i3D9NEYj+eq/8NQb5C5pRc++/TlFn4um8KAB5GAuIJFGv3hz1oDGJifU1DM+PSqnn/7Nxr1OUynsVAKl/HKCPghwJHG7maQZTuuGJ171ojOecdw9EEgO0o40/uMTFJ+czHTiPxTgLCIFyxNDzfDWXEPHZx4dqVP3cy/SOj8FWfd6lbYcj6OEs1/R6lEuJHebRSrp4Mm5xvZdSx7tf6UVyfq9T1wXVJScptc7tKCBHzENqYtmnk88poluKUXP60ASzyV0oVSzirnw++CJNGPzeSqImEC2sr60Jq3KC6yfuTtppEJOgzZdp/zISWQn86MPVIKv2ko524aRpbiOie79L2icTUsaEnqd7aXh3n4mVCLNRLeAIibYkqzvGtKeTkm5O0eSQj6INqkGZONQ3j5P+zbuojM6s4LSmDepo/QZCr5UQQ8jA8mmZX8K/uWB2paKLPpuWygdTlEHwqiJbmk0zesgIc8lF5gXNRR+T8ETZ9Dm83f5+6IpDC451LuU0MlZjiRymkUnubkAQ5m7mZ6XtqYZR9mEiicW9XrHqMRkA5jfBrpW1Yiqb1J6JviSZkXdqERc0ptCUqtsYn3cPoIUli/RjtvlKhGXSAdTaE5VwyUUNduJpH3WaAuLcTd8LNlYjqRdzN+l0fOog8STlmgTkrk1mCbO2Eznc3QGpoIImmAro75r0jT+YyhzaedIBckHbaL608W4ia5E7EcbtA5R1Yn0mWD1Yo1JW9KKXiTzfJd+KWeLytt0ft9G2nVGZ7JdGkNvdlT7s0IleBKSDg6larfo1kkz1kHDJrqNyQHD+lHvRLckimY7SanPmnRt7JgN4WNtyHLkLuLKji8G5UkrqJfMk95VOZ0/r+pFVYcS6h2SWm2LMnc7jVBY0ks7blM536SBry8FkTTJTkZ+H1TVOWs/ZxsNs1TXfuNtb5p2K6tiznK+Sr5LTs4iR5ETzdIKEG1+XkqtZxxlC+r9Jb1DSFvuubR9hIIsX9pBt5XqSZtevfPVAltbWyPqJ2//eLJXjKSdt9T73tv7Mtm2epn2spkvn+arJroSKQ0OzdHaopOTvP56GEmBbPzqH/wLPVA1UEFZ322j0MMprGLrp+EayVf/+RQ5yY5kfh9Ux40lFG0bZqmKpWqRJ2cNamxJDT3jtaeIIgNtqGX/YPpF7Rg2nH5H20IPk2Y4rRO+eNWL3kRXSbfP76ONu87ovAFQSjFvdlTpRP3NGFFzDRyf+XREWYful0TNJidpH1qjbwSNtbGkkZwRBnOusX3X549DU6m1pBetSFIFm4q+m0VOVv609YY2Lno083zi8dy6UJmH1Es5sOrpg67VP3FsgUFLwrH9tZ64mpyOovZ90d/VTLMNENr7wbeLEhlJychMSUNBWy94t6/aLoR9vz7oaK5Z1KHi1ySkFTvhGZ822vsyFH3Rp6tI/XfFVSSnF6F93/7Qno615+eLLsoMJF0q16zjR2jvg1cmeyM/cg2C5kzBmMHe6DIqFJnKSlRWEqQDp2Cy489Y6t0G7XoMweRFX6PAZxyGd22haYGfyrxUXMqxQk+frtC6bhCWhG/Haz1zjOuLwBId3NtCvYsA8hYymLd2QnuNS4RyOWQCJSqUFTyxuATjvVMXAihc3VD93J1QAUVLASrKtB991YeZix8GuOnEv48P3MrSkXJZ/QCUwNoJTlU3OitzkZh8ExXpWzGmRzd066Z+PbciFsUPLyM1swR5qZeQY9UTPtqEZG5dgvDtr8FH51a6iqvJSC9qj779XTX+Ywjt4efbBcqMJDQgXepEoHCFm9YhUChaQlDB7w/OBp9XJsM7PxJrguZgypjB8O4yCqGZSpZ7lZrbegSwdnKq+/7vZqwDCATsTCzn9T4m18BdTLOtbBcNjcgBg/rho1mujTI3Eck3K5C+dQx6aHKgW7fnsCK2GA8vpyJTc0qjY8CbVzxxM3OB3wC36jwS2veBj1sZ0lMug+95fL6+pP+agrSCtvDybq/Tfj/0qRLJxtreJO2u0gsBLDu4o61mF4G8BWTmreGkFSDIZQIoK6o+czSDi98AaMvdHn183FCWngJNuevXu1G1UOMYA1i/GIjhFmdw8Jvb7Pg7+ObA9xAPY+tsuVMZ1nwVAms4OdmwTKqJEfoqHYgpkx3x81JvtGnXA0MmL8LXBT4YN7wr+EaNBmkkX/0nZyIlrQBtvbyhHXbt0a9PR9Qx7NZBpdEaq4JXj8wwcMpkOP68FN5t2qHHkMlY9HUBfMYNh6Hh1Kh48cLs8HkFk73zEbkmCHOmjMFg7y4YFZoJJcuvepsxtuaMHp/Vy/w6oqv7SuQmJuNmRTq2julRbUO351YgtvghLqdmosxgzjWy7zVoOWQ8Rtgn4+AXCczGIkTvP4o/BryC0a3567F+jB9LmnKWBlCuCpK5mYiZVpsyNsGCuUi/gARmMGcrKiuVKFeyg4XmetsFUikkdTWmglQCVzdlTFC50+mXq8CMa58FTmls8jPbciMw3dsb/3gvEol5Erj6TcPK5ePgWOVV66H46FwCvt26ACNcCnFu+zt42ccL43Ze1dxfawTlFWxfc5iJ6vSccX0RiCDSFE01bOZRrSc68MWCzzv627lC0F3DzmlW46z1xlAfgVQGmW62sj6aqeKsXhSwds2r2ypFKct1y16BWBgUhKCq17L1CNu1Bv/oYM7cqkpI1OlWXcqYwDBv6LuY9UPtEPCmS43tnLjqeYTZre8RIx1SmYuI6d7w/sd7iEzMg8TVD9NWLse46uTj4PxtXk+LzVcHQjmLDROvgj9qHlOJP/L/QIVABrlFlV2NyQHD+lEvpaWsl5boFbhQmwPstWx9GHat+QdYGqgwPgb8eWUQgRQy/STmUhBUrVW1koW7TlDD1xdSMp0Qquq0GnY+abVINtb2pmm32nwB059aAsTtVg8CSGUyvcHJTO0ollFq9OrdqFqocYwhWgzBxFE2+OHgYeTcPIwDZ1piROALsGKbeDWfg3XMrJ4T8fvLGkM/OoeEb7diwQgXFJ7bjnde9oHXuJ24yjNoNEwj+eq/HOphV3c7i4tUUiMP6s9ZozVWBb8eWQ/9COcSvsXWBSPgUngO2995GT5e47DTgGOMihcvlciNmA5v73/gvchE5Elc4TdtJZaPc+SZQBlZcw0Yn1Xw6oi+7peqjUDgQh0bgpZhfdgurPlHB+ZfQznX2L7XQD4QgaPb43Lkl4jLi8KBb0sxZPxIPMXTiH52NX4+0SBbG43QFs6OlsjLzKh+EIu7uk3bPhsTl5+Ak4sjzG+kIKXqaSiO4iQk/wq0c3ZDh44ukNy8hNQ87fbSjMu4zgqjJuYdu6Oz7DouxOvcpP5HPOLTNO9QmTvBxdEcN1JSqh++4ihOSsavaAdnl5oZVx+VuBGxBfvvDsLG+Av475efYv2yuRjxVDm4b1LiJtr34r/ExoO30HPGSoQdOofMnCRseK4Qx8OP6fjBMEJbZzha5iEzQ6c/FWnYPnsilp+QNlNfqjDniYUL6m+RibsZoaz0oTY5y27h1l0jO8qDMjsd6YWaBUYh6/NVM1d41PW2vllr5hc5ioqt0DdwMiZPVr8mDvVCBw9PuNmYw9bZEZZ5mcjQCURF2nbMnrgcR3XWmTu5wNH8BlJS7mv9j2IkqR0CQy7mipDKSvFQ6xDcunVXp52GoX1XlOXXjQhs2X8XgzbG48J/v8Sn65dh7oinUK5OPs1eBmi2OmBNtXeDkzQfifEprIe6/IGzcamgNh3Q0UKzqjEY1I+jmuXamLVmsZMXodiqLwI1OTB58kQM9eoAD083477pRNfpvHnF06AyG+n6SYyUq2Zw9ejIBipWP1SGUm2ysPK5hary4euLvUtHuEhu4lJqnja/SjNwuUokG2t7k7TbkF4YQons9HRoPVXI6u8qzFw96vwUr8m1UAsp+k8cgzZxh7B7ZwR+aDUaEwdyCcyn+eqj64dfX83uxePLjQdxq+cMrAw7hHOZOUja8BwKj4fjGM+g0SCN5Kt/N1azLhLcvJQK7bBbiozL11n0NRjMWaFhjb1ZqVdavPY4/YH4Lzfi4K2emLEyDIfOZSInaQOeKzyO8GO3NHvXpKnx0lB5AxFb9uPuoI2Iv/BffPnpeiybOwJPlf/BzqC9+KpFU/WiPgzpiGaVFjO0ZjknLyqGVd/AahsmTxwKrw4e8HSzAZuo1J9zudmN63stJOg3YQxcrx9D+PpwnMAwTBjOzl0vzTufeDwTXcgxcPxoOMRtwuLdqShgGVaQuhsrVn+GnwusYDtiEobLoxAyNwzxeayMiq/gq6DliCjqg/Eve6DVi9Mw1voU1r6xExfzlSi5/g3eXXEArFZqoxiBWZPaIHblJLzz2SmcPXMA701+C/tvk6awbDFi0nDIo0IwNywe6tN9haDlESjqMx4ve7ArhJJLOBoWhq8Tq55krBvu6lNQ9juysh6wgCtx7+cdmLfyGzzgruRKhBBcOYTVc+dh1fFstoYV+R85+O1eGWwcHWFlrOfZldD40Q6I27QYu1MLWHEWIHX3Cqz+7GcUWLny96WB8MWi3haFCjg5WePu6QM4ksV6W5qNE6s24Nt8rQg2Bbp/FCFBEbhcrERRxn4sWHkYAv/JGF3nJaEV/CcFwO7Ch3gt5HvkMHOUv8dhw7QXMGB0MGKLOLeOx2iHOGxavBupBaxgC1Kxe8VqfPZzAawUOm3ajsCk4XJEhcxFWHweE/liXPkqCMsjitBn/Muo38VCKJycYH33NA4cyeIyAtknVmHDt/k13wMxEgHEEjGo8AEecCMN966QoAy/Z2XhAasD5b2fsWPeSnzzgLuC532MnmFEHVRk4NuwbTh4IU9zTD1YvoDxw1vh0sapmLLmS5yKv4jEcyfw2buBeGv/fXT6xwT0adI3KxnWj3qx8sekADtc+PA1hHyfwyKgxO9xGzDthQEYHRwLlga8CMQSiKkQD1RO588rg9B9HA0JQsTlYiiLMrB/wUocFvhj8uinYK5wgpP1XZw+cATq8jmBVRu+RXX58PXF+kVMG2uNU2vfwM6L+VCWXMc3767AgWqRbKztTdPuhisQB+H+0RAERVxGsbIIGfsXYOVhAfwnj677HaAm10JtxD4TMc7lLNav/xHtxwairyZ/DWu+eh9D8PlLJLiCQ6vnYt6q48hmMWKDBnJ+u4cyG0c48gwaDdNIvvpvhRenjYX1qbV4Y+dF5CtLcP2bd7HiwM3qyY2QJ2cNaqy1mb6e8dnT2RxXDq3G3HmrcFztGPyR8xvuldnA0bF+DWhqvNRwn+gJUPZ7FrLUCYafd8zDSnWCab/1pBZN1Iv6MKAjdY6G/pMQYHcBH74Wgu/VRiBuwzS8MGA0gpkRQoM5J+bvu5HzJfEzE/Byp6vYuf4biF8cjyEtNRvqornnE5p7dR89yjyKXTOcnGVmJJbLSCSUkfPw9+lH1aOHSroVtZxecJSRwExKcok5Sdv60ZuR10h967KS7kavpCHtpCQUiUkksqU+UwOom7yOh9E4ipLps1nPkatCQqIWbcln0jwa4y6h7ksuqLcrb1HU8hfIUSYgM6mcJOZSauv3JkVeU5+N7myloRIR9V37q3q5HpT3omhxbxsyF4rJooWUxDY9aGLIIvJXKGjUrtukLM+kvTM8ScEuTaQtLUkmEpGdz1w6mKW57dyob13gXBdLa4Y7k8xMTHKZiIQyZxr+/o/qpzb5+sLdvC5rTTOOae5sp1L6cYEHyfqupV+rbiR/sJNGyKoeeuKLRf2UpmylMa4yEjIb5MwW5xFLac6zFjo3j8uo9YxjVGUJlSfSMi8ZeS1L1KyoG+5BC6l1b3rRrzWJufgLJdR2wCI6lsvdha5+0ETW7lU6ofsslPIuxYSMIFcLIQnFUuYXAUnbDaZlUSwu6h0oL3YNDXeWkZlYzmIjJJnzcHqfS0idh0dUe96KouUvOJJMwOIol5C5tC35vRlJVS6ul9IU2jrGlWRC5kM584nzCFo651my0HkYTdZ6BlWHhnk4cZkXybyWqRdr2PHw9JvkLjEjScvutCD6JkUt7k025kISW7QgqdiGekwMoUX+ClKM2kW3y7mHEmTU7tUT2pv5a9YJX+4UfEYjWR30WpGkXjaA8u4ZWhvQmRTMz5yscC+BpDX1m7OX0qoNaHwOGNKP+r91gbMrhkJGuJKFkPlJymInkFK7wcso6rY6C3hj8PA0vcm0w0zSkroviOEa5MmrelDZZU29X/Sj1mIRy2MhSdoOoEXHcjXHlVLK1jHkKhOy/JKzfHGmEUvn0LMWVRrH3xfl3WhaOaQdSYVc+yKy7TOVArrJNfWn2qFxtjdJu2vHvPTHBeQh60trtQJEO0fINHmpzlHr3i+SX2tW68xXQklbGrDoGKnKnTtfzXpX3jNcC5oH2GpphEEq6FJIb5KIetHyi9pC59P8cu5hNFk7elX3RHo5yeevcsrcO4M8FWasJluSJdN7kZ0PzT2YVf3wUV00TiN56p/lS/TKIdROKlTFQWTbh6YGdCO5Rr/4c9aAxjL09CymlNee8sy9NMNTQWbMby0tWR6K7Mhn7kHSDKd1wjtGa/arRY2H0e5FLabeNuasbiyohVRMNj0mUsgif1IoRtEuTf3VCV/NcbnRkPGZT0eYD2vrPps/xYTQCFcLEjI/SFnOCaTtaPCyKFYb3HZDOWdE342cL3HnSVn1DInNXWnuqWrBrZfmnE8IuH9UM97HREXeFSSm5kJp3wleHnbaB6w4KvKQmXgJt+GATp5usNXbyCi5jbSLmSiy64qeroq6346uvI2UuJuw8nwa7atuUi89hbmdhiPljQxEv+moWcmdLhOJl24DDp3g6WarY0sl7mwbg39hGw7/31OadfVQWYDrFy/ieokCbj26oY1cs76aShTmpCL5ygMI7dzRo/NTkGq2NIwK5F1JRGquEvadvOBhp++c+vvSSPhiUR/s6jkjIQP3W3aEV5en0BxfkX7v02Fov7wtDmZ+hG4ZSbgpcUWPLg5G+VGZn4WklGwUStqiq2cH2NTsB+vnlcRU5Crt0cnLAzXcqgPzf2Yi1C72hJvxDsHvGQnIuN8SHb264KkmOaQSBVkJuPhbJdp69oKLFVBw/SIuXi+Bwq0HutVOPqNoztwpuZOO5IxbKBJawalLd7hY1/GxaRMwqB/1okR+VhJSsgshadsVnh1sGtTHyoIsJFz8DZVtPfEM53QGb17V5N6nGNZ+OdoezMRH3TKQdFMC1x5d4FAjict+z0BCxn207OiFLnUmC19fSnA77SIyi+zQtacrdD+cqKLBtmtoknYbzT18Oqw9lrc9iMyPuiEj6SYkrj3QpaajasFqoxlqwSh4Nd8IePxVWZiD1OQreCC0g3uPzniKp/tN0Ui++i+5nYaLmUWw69oTrnUkFG/O1quxNfVM3bZBeyoLkZOajCsPhLBz74HOfI7haI54MSoLruPixesoUbihR7c2aEgzja25WhipI3WizEdWUgqyCyVo29UTHWoYYSjnDPfd2PkS2++zMej8Hw8cS3gffYzxQXPNJ1TT3SeJ8l/o3R4Scpm0lzKL2HLFXfppw4vkIH2all7QXpkb5OFZWh7wL/oi28CVmonHRu133UyY+JtR650bE3VTxzs1JngxaeT/CH9FHTFmvsRtKvyFVvnaUh+dr0Z7XNT5pujfGvMemLv2LTidng53hRwtLBzQ773rGLB+O97pZeS7S9LeWHYwDOPbP3nu+TsiEAhhJtT9iioTJv5msOQVmgnZ/0xJbBhW50IzCJmfTJ4yHpNG/o/wV9QR3vlSBeKX9YKljQ/+U/IvrJnTpZH37jeex37rwmOj4j6yLv2K2+WWcO7cCU89wk+yTJgwYcKECRMmTNRGmX8dl66VwKGLodsDHx1P7kTXhAkTJkyYMGHCxP80ps/mTZgwYcKECRMmTDyRmCa6JkyYMGHChAkTJp5ITBNdEyZMmDBhwoQJE08kf9mJbvG5bVi4dJ9m6X8X5bXDCFm4EafvVf0eTdMozU5GWjO19aehvIbDIQux8fQ9zQoTfx2UuHY4BAs3ntYsm9DlL6Vr+bEIXfgeDl5WcoZh28Kl2Jeq+pmqZuHP1ZoKXPpiGRasP1H3L2g+QZjGiL8HDar9BtZj88fsydLxv+xEtyz7J3z73UXN0v8uytwY7A6NwIUHTX9mUHntE4z2noJ92X9zEVPmImZ3KCIuPNCsMPHXQYncmN0IjbigWTahy19J1yoLExEZugunb7DBtCwbP337HS7eZpPeZuDP15oKXIv6FJu+iMPvT/iczTRG/D1oUO03oB4fTcyeLB3/y050Fa/sQMr59zVLJpoDKryD3wtNAmbCxJ/FX1bXFK9gR8p5vD+oOX7L0KQ1f1dMcXt0NKj2G1CPppjx89gmuvlfv47+k9Zi14rR6NpKCrFFO/Sd/QXSUsIxu78TWorFsHYfjtUx96v37zdkhepvtoTzm6fCt6MdLNh+Vo7eGBcchVuq2Obj69f7Y9LaXVgxuitaScWwaNcXs79IQ0r4bPR3agmx2Bruw1cj5n5VMpTh2pFlCPBqgxYic8jsO8N//j5cKtZsNgJVfyaswY7lw+FuLYFE4YL+M8NwIV+zQ95BzOkfiMVLx6KzjQVsvN7B6WL+8xan7MG8591hw/ph1WEwFp+8g6rr9Mo7+zHLdyTejy/TrAEqkj7EGN8Z+Pw3Td8qsnF81SvwcVJAIpLBrutLePdoNspzwzFryqdIL83Erkm+mLozi+386P1gjM2Vt6OxLtAH7S3FMJfaodPQ+fgirUS1TUVxCvbMex7uNixvrDpg8OKTuKP75kXlbUSvC4RPe0uIzaWw6zQU81n8dVrgJ/88Nk/1RUc7C5YvVnD0HofgqFuoyhiDNtYZa/UmPiqyj2PVKz5wUkggktmh60vv4mi25iq+7BqOLAuAV5sWEJnLYN/ZH/P3XYK66YbnPV+s8g7OQf/AxVg6tjNsLGzg9c5pLoA488FUPOdhDwuRGeu7LdwHvYbwtFL1QcyalD3z8Ly7DaTMbx0GL8ZJveBw3TiCZQFeaNNCBHOZPTr7z8e+hiUZXu8/AWt2LMdwd2tIJAq49J+JsOpiYxj0VR4OzumPwMVLMbazDSxsvPCOEQF6cHQBBvjNxxG1JKkp/C8WDRqAt7iVfL6pIy+++VJX1/h8Y0j3jKUC2cdX4RUfJygkIsjsuuKld4+iKsWq4XzcbwhWxGjq1GBNaXJv/V6sHfc0HOQiSGw84L/oiKrdyjq1phK3o9ch0Kc9LMXmkNp1wtD5TP+ri7Q5+tpADOYMg0cTeOHL23p0g69eDI0RXE7un+WLke/HM3XXUJGED8f4Ysbnv2mWm3OMaFrc8s9vxlTfjrCzEDNtd4T3uGBEVR9s+NzqOcV67F07Dk87yCGS2MDDfxGO1Eru+jBguxF+VJ+/kXMaVW5Mwvq9azHuaQfIRRLYePhj0ZFsqKyvUY/1+amuWvtzdLwpeaDWkwlrdmD5cHdYSyRQuPTHzLALbEsVhnOhzj7rwn2P7uOA+4lCVlTkNHQFRZ5NoJgt48hJZEm2js/Qv7ZF0U9xkfROPwVJ+66t3l9qP1X1d/lP/6buFp1oatgpSkj5hU58EECO4nY083ghtyeF+UtIJHOioSsi6WxCDG0Z50QiS1tyfOZftC3qJ4qLfIf6KaTUd226qr2i2CDqLreip2dsomNn4yhq53zytROT8/RDdMfIX/1V9UcspVZPz6BPTp6lM/sW00AHETn+8xDdY9uVt7bQYLGQ5D1epT2xsRRxIIayzvCct/AUveEuoVbPvk2fR5+j6PAgGuBgTgKRL63LrCDljY9poMyZ5nxforKBo/SHt8hdpt7OlihhlQ+1sPKimVtPUvyFUxQ2vTtZKIZSaHICHQoOIGdRexq1PIwOJd5/PH7gs7k8mdb5Kci616u05XgcJZz9ilaPciG52yw6fp/bu5BOveFOklbP0tufR9O56HAKGuBA5gIR+a7LZNvLKXmdHymse9GrW45TXMJZ+mr1KHKRu9EsdQNGUE4//Zv5qdNUCjuVQCm/nKAPAhxJ3G4mqVKMx8a6Ym2U/0oTaJVPC7LymklbT8bThVNhNL27BSmGhtLViiKKDepOcqunacamY3Q2Lop2zvclO7EzTT90h5SNyHvDsVLSrS2DSSyUU49X91BsbAQdiLlDdw8EkoO0I43/+ATFJydT3JH/UICziBQBe1TxLTz1BrlLWtGzb39O0eeiKTxoADmYC0jku051TpZkFNRdTlbsnJuOnaW4qJ0039eOxM7T6ZDxSUb+EjFJWzFffHKSzp7ZR4sHOpDI8Z90iDOCeHylvEVbBotJKO9Br+6JpdiIAxRjxLmVtz6jUdbWFLDnrmYN0f0DE8heMYK232QR4PFNXXmRvlWra3y+Max7xlGasIp8WliR18ytdDL+Ap0Km87aVNDQ0Kv6tcn5WGpPUw9zPy3KV1Nc7klJ2sKFnl+8h6Lj4+hIsD+1EbWmaYcLiAqSamlNefI68lNYU69Xt9DxuAQ6+9VqGuUiJ7dZx4lrsTn6qs9DOjrdgcQ9l9PFOn/5na++eDTBGHjytk7dKOCpF54xggWVPh4oI+c531O14pb+QG+5yzR62bxjRJPiVv4T/ZvpXaepYXQqIYV+OfEBBTiKqd3M40z1+cdp1RxB2oJcnl9Me6LjWf0Fk38bEbWedljdPg8Gbef1o/r8jZ3TqOtNSi1cnqfFe6IpPu4IBfu3IVHracSVkHq7ph4N+alWrd37U3S8afWrHsvE0lYs1p/QybNnaN/igeQgcqR/qgWeJxfqHrt0ebwTXXHVhIxRcpJmOYrIadZJzW+aKyl38/MkbT1DtaSbFA8jA8mmZX8K/uWB6ieTqSKLvtsWSodTVBmhdhILiLbpWeQocqJZJzW/B63Mpc3PS6n1jKNsoYAiJtiSrO8aStPsrzr3zpGkkA+iTdf5B0AOVX8kvSkktaoR1sb2EaSwfIl23FaqRUwipcGhOWqbjThvQeQkspP50QdVHWHbc7YNI0uN33gnjaXRNK+DhDyXXGBypqHwewqeOIM2ny+h8qQV1EvmSe/+win/Y/IDj80lUbPJSdqH1qRXG8EaDaexNpY0chdL1oJImmQnI78PMqt/H1uZs42GWYrVglMSRbOdpNRnTbrO72ffpfCxNmQ5chfpp3t9PKTIQBtq2T+Yfnmg7ndF1ne0LfQwcSnGZ2PtWBtHafQ86iDxpCUXqqPFwhVME2dspvN3I2iCrYz6rknT9ovl8c6RCpIP2kTXlQ3Ne75YlavEQiIdTKE5Vb1Q0u3z+2jjrjM6E/dSinmzI0mfCaZLFQUUOcmOZH4fVNvAgkPbhlmq7OIoiJhAtrK+tEabZMysnTRSIadBm64b5y/VhEFCvXV+I12Zu51GKCzppR23SVnA46tybqIrIengUKrumlHk0f7x9qQYuZNuqY67R3tftqVWL+9lGcbnG2ZCHXmhq2t8vikyqHvGUErR8zqQxHMJaVOskL4PnkgzNp+vf6LLW1Oa3PPbQNeqOqbSHik9E3xJtaivNSUUNduJpH3WkH4JjSUby5HElblhjW8MPBNdvpxRGtYEo+DJ2/I68oMvJ/J5xgjeCVozjxFNitvDSAq0aUn9g38htYsrKOu7bRR6OIWdmf/cKj0T+9EGbRKq8p2rP2MwaLuxE91GzmnUuSEmvw3X1OdmqMYD6TMUzImHbj0a9FPNWlNP+h63jjdNq9R6IukdQtqhKZe2j1CQ5Us76LaSLxfqGrv0eaz36AosO8C9reZXjgVytJCZo7VTe4hUK4SQy2UQKGs/ZSgdOAWTHX/GUu82aNdjCCYv+hoFPuMwvGsLzR4CWHZwh7bpFpCZt4ZTe3XLEMohlwmgrFACFVeRnF6E9n37w7X6B5eFsPfzRRdlBpIulWvW8WPm4ocBblWNsDb6+MCtLB0plzV9EFjDyclGfX8I73kfIislDQVtveDdXqfNfn3Q0VyzyENlXiou5Vihp09XVP/KnsUgLAnfjtd8atzr8zj9UC9K5CYm42ZFOraO6YFu3bqpX8+tQGzxQ1xOzURxVgrSCtrCy7t99e9jC+37oY/GKcrcRCTfrED61jHoUXV8t+ewIrYYDy+nIlN7x4QBpBg4ZTIcf14K7zbt0GPIZCz6ugA+44ajawt+G1Wn0I21UVQiL/UScqx6wqer9jcRLQYtQfj219AzJxnpRe3Rt7+r9nfBhfbw8+0CZUYS1OFpQN5r4IuVwNoJTjZVvWDbfV7BZO98RK4JwpwpYzDYuwtGhWZCWVmJyvIspKQVoK2XN7Qpa49+fTpCHZ0KXE1OR1H7vuivTTK2ix98uyiRkXQJRmeZmQv8Brjp5EAf+LiVIT3lMkquGucraycnVHfNKKzxYuBwWJw5iG9us/7e+QYHvhdjGFtny+ebqk/96s0Lft+Y8eoeD5V5SL2UA6uePtCmmAUGLQnH9td8NMu1Ma6mBFC4usGhOlUUULQUoKKsjoJT5iIx+SYq0rdiTI+q9rrhuRWxKH54GamsQX6Nb14qeHPGkCZo9jcGA3mrqji9/ODLiWRk/sXGiCbFTToQUyY74uel3mjTrgeGTF6Erwt8MG54V7QwcnwSKFzhpk1CKBQtIagwSvSbJecaO6dRIVDA1c2B7aVGqFCgpaACZWX6twwY9JNml5o8bh1vslaxCnHxGwDt0GSPPj5uKEtPweUSI3NBr8/61L32ESEQiTQJoEUg0DquXqyH4qNzCfh26wKMcCnEue3v4GUfL4zbeVV9PwsTXRFrWx8B6m66jA38gLlIXxkEZuYsqCzoyhpJZgCBVAaZrgdZG2YgsNxRwwwwMxdoFvjPW6FkvRFyy1oEUikkVU2oqGEfO1n1jziXVzB/MBtEegfUw2P0gwGbS0uZKFn2QuDCIAQFVb2WYX3YLqz5RweYs0makqWpub5TIK1ySmkp64klegUu1Dk+CMvWh2HXmn+gg3736sV66Ec4l/Atti4YAZfCc9j+zsvw8RqHnVeV/DZyDejF2jjKuQmouRnqDFeZksmLOfTDI2DnYCuY/9ThaUjeq+GLlcDMDNpuVCI3Yjq8vf+B9yITkSdxhd+0lVg+zlEjHCzfVCmrFxxIpRL2r5oydZLp5TRnoLobypqZUT8s5jJ9wznXgTjDjfSVGetrwyIEtBgyEaNsfsDBwzm4efgAzrQcgcAXrNgWPt9oMJAXvL7h1T0+ypmmcCkmali/jaopzp81Eq3ek5RCXUKBWKjTXtCy9QjbtQb/4Bpscl8biBE5Y0gTjMZQ3nLUyA++nCg3aoyoqbjchZdmTXOPEU2KmzWGfnQOCd9uxYIRLig8tx3vvOwDr3E7cVVp3PjE6ZV+FjYg042wvV4/amj0nIaDi71RJWTIT5pdavDYdbzJ9cvOJ5PpaaeZulCY9cbnQn1DsJ4m/zWpxL34L7Hx4C30nLESYYfOITMnCRueK8Tx8GNG3/RejbkTXBzNcSMlBdXPpjGK2dXyr2gHZ5eaaVs/yux0pBdqFhiFrM2rZq7wqOvymve8Mjh1dIHk5iWk5ml3KM24jOssyCq4oqYylD7UFlvZrVu4q9ldaOsMR8s8ZGboPDBRkYbtsydi+dGbLBN0suBx+cGgzWZo7eIIeVExrPoGYvLkyerXxKHw6uABTzcbiJ06wkVyE5dS87R9Ks3AZY1TzFq7wFFehGKrvgisOn7yRAz16gAPTzfj3sGrvIf4Lzfi4K2emLEyDIfOZSInaQOeKzyO8GO/89rYuCISwtbZEZZ5mcjQSeKKtO2YPXE5Tkid4Gh+Aykp97X9RjGSkn8F2jmjAeHRo0E5W3kDEVv24+6gjYi/8F98+el6LJs7Ak+V/8HJCypZDnV0keDmpVRoU7YUGZevM+nkMIcT8535jRSk6CcZ1N1wqTVI1IsyG+n6hiPlqhlcPTpC6sRy4BH4SoW0PyaOaYO4Q7uxM+IHtBo9EQMt2Ho+36iPNgCfb5zwR1N1T2gLZ0dL5GVm6OxfgbTtszFx+VHNcm2apaZ0tcasNdMaOYqKrdA3sKq9yZg41AsdPDzBSqh5Nd4IzPlyxsyQJtzS7G8EBvK2dsXx5YQbOvCNEUxTzcwIZaUPtZO0slu4pRkkmneMMGtS3CrvxePLjQdxq+cMrAw7hHOZOUja8BwKj4fj2N32zTY+1Q3fvMKwHx8nBv3EOVk3ZnXxyHW8GbSKTYez09OhrZRCVptXYebqgY5sLGxqLvwNJrpCCK4cwuq587DqeDZzP6vLP3Lw270y2Dg6wqrBPbDFiEnDIY8KwdyweOSxSBZf+QpByyNQ1Gc8XvYw8mqMQfePIiQoApeLlSjK2I8FKw9D4D8Zo5+qyyj+81q/OA1jrU9h7Rs7cTFfiZLr3+DdFQeqv/BcqHCCk/VdnD5wBFnMEaXZJ7Bqw7fIr6pE+UCMH+2AuE2LsTu1gF1pFSB19wqs/uxnFFhZQyCWQEyFePCAS9/H4wc+m638JyHA7gI+fC0E3+ewHZS/I27DNLwwYDSCY4vYxeyLmDbWGqfWvoGdF/OhLLmOb95dgQNVTrHyx6QAO1z48DWEfJ/D8kOJ3+M2YNoLAzA6OBasBX6EAlw5tBpz563C8WxVhuGPnN9wr8wGjo5W/DY2EvnA8RjtEIdNi3cjtYAJTkEqdq9Yjc9+LoCV60hMGi5HVMhchMXnMYuKceWrICyPKEKf8S+jAeHRo2E5y73jJUDZ71nIesD8rbyHn3fMw8pvHrBAlqKE+2h/2lhYn1qLN3ZeRL6yBNe/eRcrDtysHkRtR0zCcHkUQuaGIV6dZPgqaDkiivpg/MseNd6NMQDdx9GQIERcLoayKAP7F6zEYYE/Jo9+ig3eIx6Jr9SI4TNxHFzOrsf6H9tjbGBfqD/g5fMNP4Z90xnmTdY9OQaOHw2HuE1YvDsVBZWVKEjdjRWrP8PPBdy70vXQDDWlrzVW8J8UALsLH+K1kO+hLqE4bJj2AgaMDkZsEb/GV2R8i7BtB3FBZ4JnDFSSh6y0VKSmal+X0nNQwJczIsOaYDSG8laziy589dKKZ4zgbiFxcrLG3dMHcEQtuDixagO+rRLcZh0jRE0am4WCKzi0ei7mrToOtYv/QM5v91Bm4whHK7tmG5/qhifnzHn8+Bgx7CfWD72Y1cWj1vHm0CrC/aMhCIq4jGJlETL2L8DKwwL4Tx6Np9gFe5NzQXOv7iOHuxFb1noGHdM8J0OlP9ICDxn1Xftr9Y36D3aOIJnmZm29G7fLM2nvDE9SsEssaUtLkolEZOczlw5mcUdyNzLLqPWMY5obwLmmF5CHrC+t/bW6Zdo5Qkb2UzVPYypvUdTyF8hRJiAzqZwk5lJq6/cmRV6r66mFulHZZ92bXvRrTWKRmERCCbUdsIiO5apvhlY9iCJrR6+e0D6ExX9eJd2NXklD2klJyLUpsqU+UwOom7zqhvdSStk6hlxlQjJnx0vlzjRi6Rx61kJ7Q7wyL5bWDHcmmZmY5DIRCWXONPz9H1VPNtPD0/Smu4TMJC2p+4KYx+IHfptZn2NCaISrBQmFYpJKzEkgbUeDl0XRbU0TyrvRtHJIO5IKRewcIrLtM5UCusmrHwpQ3o2hkBGuZCEUklgqIXOBlNoNXkZRVQ0YQXnmXprhqSAzMym1tJQx39uRz9yDpEoxHhvrjLVRKCkvdg0Nd5aRmVjO8lpIMufh9P6P6m+LUN6KouUvOJJMwPJezvolbUt+b0aSOjwNz3vDsVI/xCBr9yppu6Gke1GLqbeNOQnFFtRCKiabHhMpZJE/KRSjaJeq83cpeuUQaicVkkgsIpFtH5oa0I3kVU/rcu1GLacXHGUkYL6VM99J2/rRm5HXyOgsUz2YYU29X/Sj1uwcYuYnSdsBtOhYLmtdjUFfqb51QUbtXj2hfbCkIVRcopDeEhL10n2wid83deWFnq7x+cag7hmJMo9i1wwnZ5kZieUsr4Uych7+PnEpVv+3LrBtBmuqdu5ReSIt85KR17JE9XItrblLMSEjyNVCyPwlZVojIGm7wbQs6rY6hjx9LfhsJElEvWhFkrFZo34YjY2x3MxE7yVQTKCIImaSwfri0wQj4MnbunWDr174xgimAylbaYyrjIRMz+VMc51HLKU5z1po9bI5x4gm5Wg5Ze6dQZ4KM9Z2S7JktojsfGjuwSz1nIDn3Fwt6c0pWHuJy7xI5rVMs8wDj+18fqx1/obMabjckLWmGVrjWQktIy+ZFy1LZP3Tq0ceP+nFLPrP0fEm5QGnJ1Ky7v0i+bVmOc3OL5S0pQGLjlH1NMJgLtQ1dukj4P5hxf83oBKFOalIvvIAQjt39Oj8FKSaLY2lIi8TiZduAw6d4Olmq7053wjufToM7Ze3xcHMj9AtIwk3Ja7o0cXBKJt4z1tyG2kXM1Fk1xU9XRW1rvzLfs9AQsZ9tOzohS5P1fWF0hXIu5KI1Fwl7Dt5wcNOe4bKgiwkXPwNlW098YyL+p2Jx+EHXpuV+chKSkF2oQRtu3qig01NK0pwO+0iMovs0LWnKxS1rhKVyM9KQkp2ISRtu8Kzg02D+qGishA5qcm48kAIO/ce6PxUjV7w2thIKvJwJTEVuUp7dPLygE64GCyWmYlQh8cTbraNP2djc7ay4DouXryOEoUbenRrA7lmvS4lt9NwMbMIdl17wrV2cFR9zEy8hNtwQCdPNzSoG/c+xbD2y9H2YCY+6paBpJsSuPboAodahjefr4zFGN/wYtA3zaN7FXlXkJiaC6V9J3h52BlZG02rqbq0RpmfhaSUbBRK2qKrZwfol1Dzazw/PDnDpwmGMDpv64CvXnjGCCa4yEjIwP2WHeHV5SnNpxC6NOcY0bS4VRbmIDX5Ch4I7eDeozNqurgp4xM/PLbz+vHxYchPdcWsJo9exxubB/fw6bD2WN72IDI/6oaMpJuQuPZAlzoKpbG58Dea6P61qJ40XN2OF42L5hOJyQ9/H/62saqeMFzFdlOSmfi7YMpbEyaMQDvRvbr9xUdycVvHlN2EMQgEQpgJBbz3gT/pmPzw9+FvGytmsNBMyP5nSjITfyNMeWvChBGwMUloBiGrk0dVKaZ3dE2YMGHChAkTJkw8kZje0TVhwoQJEyZMmDDxRGKa6JowYcKECRMmTJh4IjFNdE2YMGHChAkTJkw8kZgmuiZMmDBhwoQJEyaeSP7Eia4S1w6HYOHG06ql4nPbsHDpPtXfHMrsY1g5aSj8nh2E6dvTUN9vfjxaSpGdnIZ7Dfsxnv8x9OP4V6bst2iELZmBMUMGwG/QMPxj1krsjrvNetDMKK/hcMhCbDx9T7PCMIU/foKFy79EWnMneWk2ktPuwZS+j4fS7GSkmcTisaG8dhghCzfidDP5/PHET4nrR9bgbWb3qTtV58pHbOhCvHfwsmb5b0ADNe5Jp+b8xSDF57Bt4VLsSzVO8Js/L/8+Y3Zz8adOdHNjdiM04oJqqSz7J3z73UXV3ywTcHTpdKz+wRz9AkZjSHeHP8FQlgyfjIb3lH3INo1dBtCP418V5dVdGN/3RayMVqLT4DEYN/JZtLtzEG8O6IOpX2Q372RQmYuY3aGIuPBAs8IQlShK+gqbP43Cteac6LKB6JPR3piyr5n7ZqJOlNc+wWjvKdhnEovHhjI3BrtDI3DhQdO/OOixxa/kLDa+E4Io8kRPe82oVlmIxMhQ7Dp9Q738d6BBGvfkoz9/4aEsGz99+x0u3uZ/i+XR5OXfY8xuTv4yty4oXtmBlPPvqxcqC5CbW4DWw+Zj5dvzMKG39Z9gKKHwzu8oNI1bTwBl+DlsPY5b/B++PPkZQoLm4fU3l2DDwWjsGl+BiFWb8VOZZtcnBSrEnd8LTZPcxwQV3sHvJrH42/K44qe8cQfWr2xFePBAKDTrTPz90Zu/8KF4BTtSzuP9Qfy/s2bSlebhMc4fi5GyZx6ed7eBVGyFDoMX4+Qd7ZV4/tevo9+QFUDFRWx4+UWsiy/D7a/nol/f1/F1Ppv73o7GukAftLcUw1xqh05D5+OLtBLN0Xk4OKc/AhcvxdjONrCw8cI7p4t5jsnH16/3x6T1e7F23NNwkIsgsfGA/6IjyFZWIjd8FqZ8mo7SzF2Y5DsVO7PY1VflbUSvC4RPe0uIzaWw6zQU879IQ1WLyD+PzVN90dHOAmLWR0fvcQiOulX/ZCP/a7zefwLW7FiO4e7WkEgUcOk/E2EXWIc58g5iTv9ALF46Fp1tLGDj9Q5Yt1B27QiWBXihTQsRzGX26Ow/H/susQ14gKMLBsBv/hHcV7egovC/izBowFs4wq3k6wOz9nb0OgT6tIel2BxSu04YOv8LVLuNJ44c9dvHqKdPfLE6v3kqfDvawUIshpWjN8YFR+GW0fVPyH9QADIz0094oS2Gvf0hgqf3RsuqDbz+qYPiFOyZ9zzcbaQQW3XA4MUnoe8SPp8yKA8/Bo+Ah7UYYktnPDszDAkFmm0Mw/6pQWUuwmdNwafppcjcNQm+U3eCS1/DfTNUD6odeH2Td3AO+gcuxtKxnWFjYQOvd+r7aMywPzgt6D9pPfauHYenHeQQSWzg4b8IR6oNqZuK7ONY9YoPnBQSiGR26PrSuzjKHVN5B/tn+WLk+/HskkdDRRI+HOOLGZ//pl7m6ZshmypzwzFryqdIL83Erkm+mLozS3XOMx9MxXMe9rAQmbGY2cJ90GsITyvVtFg3xSmfY+6gjrCWSqBwewGL9nyMV/vPwOe/VbIm92OW70i8z7SxioqkDzHGV71dRUPz1wjfNDQeqv0nrMGO5cPhbi2BROGC/iyfq2Stbg0ow7UjyxDg1QYtROaQ2XeG//x9qJINjuKUPZj3vDtspEwDOgzG4pN3WGWrMco3Fdk4vuoV+DgpIBHJYNf1Jbx7NBvldcWPeYPPHn14NKrsGo4sC4C331S8t3omnvfyx/x9l5ia1kXDzs3nb2N8w6svfBrX0LzjGSsN2lPPGKKPgXjw5rxGC9fuworRXdGK5ZtFu76YzfqTEj4b/Z1aMput4T58NWLuqy3mYqCav6gX2Lg+Cev3rsW4px0gF0lg4+GPRUeyoaoYbnu/IVgRoz57/vnNmOrbEXYWTPutHOE9LhhRzNC6dKVOjeXVmiaO2TXhm7dwaPLdq00LiMxlsO+sm+91z9f0MDZGhsYrXbgfjHgcFJ56g9wlrejZtz+n6HPRFB40gBzMBSTyXafafjfMn6T2U4mUt+jclx/SlK5ishscRJ/s+JbSCpNpnZ+CrHu9SluOx1HC2a9o9SgXkrvNouP32cHsmC2DxSSU96BX98RSbMQBism9aPgYukth/lKStnCh5xfvoej4ODoS7E9tRK1p2uECKkg6RMEBziRqP4qWhx2ixPvllLzOjxTWvejVLccpLuEsfbV6FLnI3WiWqsFy+unf3cmi01QKO5VAKb+coA8CHEncbiYdL+TOVwd3w8hfIiZpq6dpxicn6eyZfbR4oAOJHP9Jh+5x3dpCg8VCkvd4lfbExlLEgRi6UxBLQd3lZPX0DNp07CzFRe2k+b52JHaeTofulNOtz0aRtXUA7bmrOQfdpwMT7EkxYjvdVPL1gfUieR35Kayp16tb6HhcAp39ajWNcpGT26zjrCX+OFKRIfuUdfep1HB8y3/6N3W36ERTw05RQsovdOKDAHIUt6OZ9Tq2Nn9EzSMPiYha9QigN9Z+Rsd/uUGFSs3Gavj9U5tCOvWGO0laPUtvfx5N56LDKWiAA5kLROS7LlO1h2GfKunWlsEkFpiRtfcc+jTqHMXsW0wDnxKR88yjlKdugCeXa1JASYeCKcBZRO1HLaewQ4nsPHx9M1wP/L7R9EMopx6v7qHY2Ag6EHOHM6YWfDmm0gJpC3J5fjHtiY6nuCPB5N9GRK2nHVY3UBelCbTKpwVZec2krSfj6cKpMJre3YIUQ0PpatkN+nigjJznfE8lmt2p9Ad6y12miRF/3A3aVJBEh4IDyFnUnkYtD6NDiffp7oFAcpB2pPEfn6D45GS2/39U8VAE7CFW2nVTeJre9JCQTZ95tOv0OTr92XzybWtBUrEvrcusIOWNj2mgzJnmfF/dC9aNt8hdpt5uTD9qoeTzTcPjwe0vEUupFdOAT06epTNcPjuIyPGfh1R9r0sDss4EUXe5FT09YxMdOxtHUTtZ3+3E5Dz9EDHZ4ISH3nCXUKtn36bPo89RdHgQDXAwJ4HIWN+UUsIqH2ph5UUzt56k+AunKGw602vFUApNTqgVv6JYHntqYFijiig2qDvJrZjObzpGZ+OiaOd8X7ITO9P0Q3dIqRMDjoaem9fffL7h1Rc+jWto3vGMlTz21DmG1PCLwXjw5jynhRISyZxo6IpIOpsQQ1vGOZHI0pYcn/kXbYv6ieIi36F+Cin1XZuuOlxVI9z8Rb1A/lIptXB5nhbviab4uCMU7N+GRK2nkUpKVdvtaerhh5yh9G+mU52mhtGphBT65cQHFOAopnYzj1NhLV25V6fG8mlNU8fsWvDMW/jzvY75Ws3zGBUjQ+OVPo9poltAkZPsSOb3Aak0h0OZQ9uGWZK45kSXQ5lLm5+XkcvcU6pOlkTNJidpH1qTXnUw4244jbWxpJG72GCqcpyEpINDKUfjL95jNMks9ttA16p8XBpN8zpI6ZngS2yhnJJW9CKZ57v0SzlbLImi2U5S6rMmnbQt3qXwsTZkOXIX3aGHFBloQy37B9MvD9QNVmR9R9tCD1NKbb+rUSWMhHqHpFa3qczdTiMUlvTSjttUzhW0REqDQ3PYNEJNQcQEspX1pTVpWiuUuTtppEJOgzZdJ2Xefhpvr6CRO2+pj7m3l162bUUv72UzX94+lFDUbCeS9llD+m4bSzaWI2nXHf448tlXV5/4YvUwMpBsWvan4F8eqI+pyKLvtoXS4XodWxeldO1YME161pWsWJFDICSZgye9+Foo/XBLc15e/9RBQSRNspOR3weZ2hjmbKNhlmJNQfL5VD1BlEifpf9kVLdAOduGkaUigD5nwsGfy3VQnkQresnI891fWCYzePvGUw+8x1f1YzCFVhVhnfD5g/2tGrj9aIPWEIqe14GkzwRrlmtTGj2POkg8acmFUs0aJvDfB9PEGZvpfDGPaBoRdz6bypNWUC+ZJ72rEgsl3T6/jzbuOqMzAJdSzJsdVftf0um3LoVfTSY7Kaudasco6fonQ6mlsRPdxuSvkRPdhsRDtb+kN4WkavuRu30EKSxfoh23NRe7ehpQQBETbEnWdw1pZYMds3MkKeSDaNN1JSuzSWQn86MPtMKjrhFjfaPKZQl5LrnArNdQ+D0FT5xBm8+X1Igfvz01MahRBRE0wVZGfdekaePCxridIxUkH7SJrpfrTnQbfm5ef/P4hldf+DSuwXlneKzks6d2/tTGYDyMnOhyY1pVupWcnEWOIieadZJNTjlUcxQptZ5xVLXIxUBvossmgn4brlXbp9In6TMUzBW/7kT3YSQF2rSk/sG/kNoVFZT13TYKPZzCMqG2rtTWWD6tafqYXd1sFTzzFiVvvteer9XC2BjVO3/T5/HculCRhZS0ArT18kZ7M806oT369ekIc81i/SiRm5iMmxXp2DqmB7p166Z+PbcCscUPcTk1U/PWtgDWTk6wUfXI+GMUrm5wqPKCUAFFSwEqyqrfLK9GmZuI5JsVSN86Bj2q2uv2HFbEFuPh5VRklkkxcMpkOP68FN5t2qHHkMlY9HUBfMYNR9cWmkbqwswFfgPcoHVLH/i4lSE95bL6myYE1nBystF85F6Bq8npKGrfF/1dq47gjvGDbxclMpIuodz6RQQOt8CZg9/gdmUl7nxzAN+Lh7F1tvx9eJiLxOSbqEjfijE9qrZ3w3MrYlH88DJS03/liaMR9nEr9PrEHyvhwCmY7Pgzlnq3QbseQzB50dco8BmH4QYdWxMxnF9cgj2xV3A7NwWn9m3Amy9Y49Ku1zFkcBCiC4yJsaYpHSqyUpBW0BZe3u11YtgPfTpqMlvJ41NNo2ZOfeDrXN0C7Hs/gw4laUi+/NDIXDaMcX2rvx6M9Y3A2glO6iKsGyP9IVC4wk1rCBSKlhBU1NfTSuSlXkKOVU/4dBVr1gEWg5YgfPtr8OG5Fc7ovhltE4ufzyuY7J2PyDVBmDNlDAZ7d8Go0EwoWU1W6n9qqEGJ66np+MOhJ3rr5EFbv2fRiV8kVTQmf42lYfHgZM0PA9x08rmPD9zK0pFyWfPEpa4GVFxFcnoR2vftD61ssGP8fNFFmYGkSw+RlZKGgrZe8NYKD+z79UFVmfFRmZeKSzlW6OnTlSmBBotBWBK+Ha/VTBBee1QqpofUgEZVXE1GelF79O3vWq0RnG76+XaBMiMJes014twcvP6uF379LebRuIbnnaGx0sixW28MqY2heBiHAJYd3NFW02GBvAVk5q3h1F6kXiGUQy4TQFlRz+1UAgVc3bQP0QsVCrQUVKCsrEbxSwdiymRH/LzUG23a9cCQyYvwdYEPxg3vivos1ddYFmtDWlPON/cycsyuiYF5S4lR+a47X2ssxs/fjJSJplIBJcsHobnu6QSQSiXsX35KS5nhlr0QuHAqOmtjwRCiZacOrBNc8ghgZmZe3R7/MRzcMXobuVV1U1rKCswSvQIXYqp+gxC27IQOrEHroR/hXMIwfLk3Ese+O4Xt7+zFxvWjsTUmAtN1kkgPgRQymW60zWDOdiWWpCoEZjAz1xpVpmTCZS7SDxzbh3NtZaWSeaIFhkwcBZsxB3E4ZxjMDpxByxFf4AUrtt9Nvj6U4rTKbYFYOLWzNkk5hC3RqQPhKE8c+e1TL+v2iTdW1vb46FwChn25F5HHvsOp7e9g78b1GL01BhHTdYqpPiou4auPjqNy6Ot4ubsEErsuGDiee72OBeNnw2fUZ9gRFYz+nfljXAsmdEpmp75LpJBKqjMR6u7V51N2YCL7WySGSDcNWIPcIjGHGZfLPBiRvymG6sGI41VVyI7XCW0dGOGPFHU7+mcx2CjKuQGHFY7IwG76Qww34dSsMaJvHMbbVInciOnoP3k/Hnbxg1+v7vCbNhYvnVuCoAzNLnVCELC4m+k0K5DLwcZTHfR7wYpKlSMqjOxHXdTrGw0NjYdAKoO+rLF+sbNUyZq+BrALKZVs6BsoYMeYc7YoiZWZSnj0cl0glaK6zFQY8E05G4PY0WaGEqQafntqYT20Xo36wlPJRkBz6DfHak0titBvrhHnZvD624BvePWl4oRhjWtE3tU/Vn6Jfrx6xwSzxhhSCwPxiJimvrDR90jNnBdAJNJMaqsRcKc1Ds6+GvvWba01hn50DgnDvsTeyGP47tR2vLN3I9aP3ooYpiGOmr100ddYPq3hn3sZNWbXxNC8pcyYfNefr9UHX4yMnb/pWvroMHdCRxcJbl5KRV514ZUi4/J15hA+zNDaxRHyomJY9Q3E5MmT1a+JQ+HVwQOebnVd1TXmmNoIdJxm1toFjvIiFFv1RWBVe5MnYqhXB3h4usEG9xD/5UYcvNUTM1aG4dC5TOQkbcBzhccRfuyWppU6UGYjPb1Qs8AoTEHKVTO4etT1brc5nFi/zG+wfTQ3wasoTkLyr0A7ZxdwpSntPxFj2sTh0O6diPihFUZPHAgLtp63D6LWcHGUo6jYCn0Dq7ZPxsShXujg4Qk3exeeOBpnnz58sVLgfvyX2HjwFnrOWImwQ+eQmZOEDc8V4nj4MeMeSKvMww+fssLf9mONhz+EUPToDichm6wqK/n9U0fSmDt1hIvkJi6l5rEy1FCagcvXNZltxuNTTaPKnMv4VScNCpKTkWXuAvcOkkbmMhNlzV8cjembLk09vhoj/dEwhLB1doRlXiYydBKiIm07Zk9cjqM3OUEklJU+1Apn2S3cuqvet1n6pisWlTcQsWU/7g7aiPgL/8WXn67Hsrkj8FT5H5xUa/NEDzO093CD/OYlpGrs4ihJz8BVNlCp4CabVIbSh1qxL7t1C1W7N64f3IBcv28aizI7HfqyloKrZq7wqOstWDY+uDia4wbbR182kvEr2sHZRQanji6QcL7RCg8rs8uoKjM+3whtneFomYfMDJ2HgyvSsH32RCw/elM/frz21FSxStwzoFF327O4mN9ASsp9ndgXI0ktitBrrsHnVmPQ3wZ9wz9Wink0rsF5V2lorPy9GcZuw/G4Vflocr4xVN6Lx5cbD+JWzxlYGXYI5zJzkLThORQeD8cxTst087Iu+LSGd+7VmDGbYWDeInVqQL7XS/PGqDGjSiOwxovsKsP61Fq8sfMi8pUluP7Nu1hx4KaOI+rHyn8SAuwu4MPXQvB9Tilz8u+I2zANLwwYjeDYIs1e+jTmGH0EEEvEoMIHeMBlhJU/JgXY4cKHryHk+xyWKkr8HrcB014YgNHBsSgSCnDl0GrMnbcKx7O5px0r8EfOb7hXZgNHR+7t1Hqg+zgaEoSIy8VQFmVg/4KVOCzwx+TRT9UZHNsRkzBcHoWQuWGIz2OGFV/BV0HLEVHUB+Nf9mDpwRD7YOI4F5xdvx4/th+LwL6aj+b4+gAr+E8KgN2FD/FayPdQuy0OG6a9gAGjgxFbxB9Ho+yrgeFYPYTgyiGsnvv/7Z0JXFTl+sd/MzArAgMIgiC74IrhgluQmgsKuXtT1PCvXW+amXYttRTwimhmltf0KplLaqVouedNVIRUvFogm6KoSIE7iiwCMjz/dxaWgWHOiEta53s/dD3nzHnP+zzP73ned86cd2Y6Fh7IYX1mnr2fi9/ulMPa2RmWzEkVmT8ieu0OnKk1COog7oZJf++GOxum4P+W/xcX7mlmDiW5P2P1zBU4aT8co/vIjfCPHqwGYcIIKxxZ8i7Wny2AsvQq9s6LwPZrVX3h8qnmVXRvPxZ/uAvZpZUoytiC9xbsg2jQeAxuKmyclgViSMSEonv3NAWtMbbV5nHPr8Y4fzwq8t6jMdQ+ESvnbkJ6ISvwhenYFLEIG38phKWNNVxcrHD76HbsyWYXLMvBwYXL8WOBtoQ+AdsEYgnEVIR76mKhupshQPmtbGTfYzpQ3sEvX03Hgr332LXLGlyJbh4YilF2Cfjk3S+RxDRalnMAERHbkKed6AoVLnCxuo2j2/dAY8ZBLFz+I6rMaJQdQoVh3zQSursPUbNjcKFEieLMbZi1YDcEgeMxtJneqobgcUGQx0ZhWvRpaMrG95gdHoPibqMx0tuEpdkEjLA6giXvrsfZAiVKr+7FvIjtqEozTt/Ie2P0UHskrpyLTemFqKwsRPqmCCza+AsKLa3qxI+7P7oIDdco22CMC5IjNmoaok/ns3wswaXvZyM8phjdRo+EbnOPem0NhvzN5RvO+sJV4x5Vdxxj5eOP3RzxMH06mm8MQsEl7Fo0DdMXHoDGFfeR+9sdlFs7w5kNbrq61AdXrXk6Y7bBeYvNo+i9AZ50XdI+q/v0Ud6muAX9yEkqJJFYRCKbbhQ6rB3JjViMxnbQ7fgoCnY3I6FQTFKJKQmkTtQ3LJZuqB5EVi9Gk5HT5IM1Dy5znaN+mFlGDpP2k/bxcqKHyRTmKyPfsGT15oOjM8hLYkIS8/Y0K76MmRBPUcHuZCYUklgqIVOBlJz6hlGspkF6mLWVJvkoyMRESuYWMhKJbMlv2g7KrnnGWxf1Q+lW1HVQADkwn4hFQpI49qI5+/PUD4CrH7qXOdHkgzVWqey6HhtO/Z1lJGDXkTO7pI4BNGPnFc2iIy0VGVHUVSKiTuFndfZz2aCKU3xUMLmbCUkolpLEVEBSp74UFntD81A6Rxy5+teQTQZj9TCLtk7yIQV7iyc1tyCZSES2ftNoh9axhRsHk0TUiSJSaltah4o8+mnBEGqlYG2biMnMXE4ioYTsu0ygNWfua1+kMo/DP3pQ3o6jBf2cSCpUxVBENt1CaVg7efViHsM+1SwwkLccTKG9HUgilbJ+icg+4EM6eK3qmlxa1scDOjrDiyQmEjJvP4uYfDls484Hw+dr7JA5TSad0OqDQ2OqWiBzmET7azpCyWG+JPMN027rQ0n5CYspyFVGJmI504iQZK5B9PFxzarvsrQ1NNxdRkJTpkmpnFyD59PUl82qY8QVd84+PThKM7wkZCIxp/az4uhO7Fzqam3K7DOjJlIxWXcYS1FzAkmhGEIbDGjp7omlFOwqJaFIzLRkQ12C/clRql1QRWWUtmY4ucuEZMpskMpdKXj+VHrZrOo4tx364PLNo8ZDXcututKgAAdmg1idZ4695tD+PE0f9NYAVsNjw/uTs0xAJqwPEtYXx4AZtPNKVU6zHIhbQP2cNL4RMd90Cx1G7eSP4Jv8BFoc5Eoylv9ymYiEMlcK+vi4+ps+dOMXb0R/6sBRo5TXYym8vzPJBOy4nMVF6kgBM3aSurlaC2+0L36ka3P5m9s33PWFq8Y9qu4Mj5WG+6N/DKkDRzwMa75+LSw7Pou8Zd1pyUXN+UT3aH2wjOxCNd88oo5B7cVoMgeaVJMwrJSGka/Ml8KSWQxrL0ZjuZS1dRL5KExYrM3JgulSZOtH03ZkaxZy1akr9WuskrvWPOaYXQ+OeYsKw3rXN1+rz6PGqO54VRuB6j/aOe8zofTGOZzNKoZt245wVzziDWVlAbJT0pBTJIFjWx94WNcsPGmQxpxTTSUKs5Nw9rdKOPp0gpvq9iF7t1qQnYK0nCJIHNvCx8O6ZnGDisoi5Kan4tI9IWy9OqB1M6n2gB7ufImBLcLhuCMLn7fLRMo1Cdw7tIG9gVOqqchHVnIGbsAerXw8YfMoZnHZwFAWZCMlLQdFEke09fFAXbdxxrEx/TMYq0oU5aYj9dI9CG290KF1MxjjpnqU3UJW2gXkFgth2aIV2rlZsffEdeH2T31KcePcWWQV26JtR3focwmXT1XauZqUjFyRO17yaQ65dnc1j6rlykJkJ53Fb5WO8Onkpr773TjbavO459fA6Y/GwHR3KTkdeUo7tPL1hm3tNstvITMpE3fNW8K3TTPUX6P2eLZVFmYj6exvqHT0QRc3S7Z9FWfPXkWpwhMd2umJZ0OU38T5pIsosmuHdnn/Qod+p/Bm6jG876G5FVJ+KxNJmXdh3tIXbZrpW2nXCDs4fWM8d74ciBbhjtiR9TnaZabgmsQdHdrYG5WvFflZSM64Adi3go+nTf1+l97AubNZKLZti47uinqfenH7pgL5l5KRnqeEXStfeNcSSN34qeDsjw5cNYpdOysZmuZ84MlRFI29trH+5vQNZ33hqnGPqDuusfKxxm4VHPF4gpp/XCqLcpGeegn3hLbw6tAatV2hT5d1MabWPLEx2+h5y6PpXS9PKEbPfKLLU4tqwVzGukH1VMLDw/MXp/z4P9G+zkT3ead64nV5Hfiy9vTh/c3zTHkB5y16pvU8zwyBAEITIfs/jgfOeXh4/poIhDBR1wjt9guAQNVnoeCF6vOLDO9vnmfKCzhv4e/o8vDw8PDw8PDw/Cnh7+jy8PDw8PDw8PD8KeEnujw8PDw8PDw8PH9K+IkuDw8PDw8PDw/PnxJ+osvDw8PDw8PDw/OnhJ/o8vDw8PDw8PDw/CnhJ7qPgvIKdke9jxVH72h38PAYRnllN6LeX4Gjd6p+cPFFRYkru6Pw/oqj2u3nn5KTa/H+/G+0WxyUnMTa9+fjm/SGfmpTl7KcVJz7Q2KqG4e6Nipz9mPBuAEIeLkPJq47B+OsedKUISf1HF50yT/p3H22mlHi0vcL8d6MGZih+ps5E+/Nmo35i75AzKk89c/iPl+8ePXl6fAi++H57Ts/0X0UlHmI37QKMWfuaXfw8BhGmRePTaticObei/4tfkrkxW/Cqpgz2u3nn/Kc/+HHn85qtzgoz8H/fvwJZ28otTsaRnnlPxja+Q18k/PHTHRrx0HXxhLsmz8Ri342RY9hQ9Gvvf0fUODZYPefoej8xjf4Q9zzBHmSufvsNVOB3+I24otNh3Hx9h3cuX0bN/Mu4dcDn+PvL7dB139sRza31J8hL159eTq8yH54fvvOT3R5eHj+lChe/wpppz7WbnGgeB1fpZ3Cx324f2SSim7iVtHzMYvTsbGyEHl5hXAYOBML/jkdY7pa/QEFnlB08xaeE/c8N/xRmhE0C8RH6zdj8+bN2PLNDuw/no5fvx6Moo3/wJurs9jUhIfnz88zq4MFP7wD/zGL8VV4ELysJJAo3OD/ZjTOFGiO5++YCv+QuZg/ojWszazh+4Hq9nc5ruwJwzDf5mgiMoXMrjUCZ36DjBJ26N4+zOoVgJl77qrP11CE/87pg17v7VFvVd6Iw9IQP7SwEMNUaotWA2bi23Ol6mNqKm8gbmkI/FpYQGwqhW2rAZj57TlUv6IkDZunvwovaynElh7oO/cQbtZ+c19+BXvChsG3eROITGWwax2Imd9kQNU9Ffpt4qD4COb17YGJm3JQUxbLcWpxMPynbNNuNwDr79fT+qCllZT51xP952zGvyf7Y9LXvzFbb2LbWz0x+OPTrDUtFSn4bHhPzXE1lbgRtxQhfi1gITaF1LYVBsz8FrVdVp9K3Nz2FnoO/hinaxpGymfD0XPS15rNgh/wjv84LNu6BKNesodcJIG1dyDm7MlpuNCqzxmDxV+FI8jLChKJAm7+byK6SjDIx46p/giZOx8jWlvDzNoXHxwtYSHZg7BhvmjeRARTmR1aB87EN2rBqCQzC70CZkJXMv/FnD698J56J5f93P4pSduM6a96wVoqhqVHX8w9dJMN/TUY6h8TDKb6h2Du/BFobW0Ga98PwEyqD5dvjIk1l/aZitM2T8erXtaQii3h0XcuDumIvzFaKcCpL0LRs6UtzMTMP86dMSoyFtdVQufscwF+eMcf45ZsQMTQtmjK/Gvm1B1TWJ/TtkyBv4s5xGIreAUtQvxdTeaoak6PfhHV//Yftwxbl4zCS/ZyiCTW8A6cgz05WgWqfNqjHyLiNVcvOPUFQnu2hK2ZmOW+MzqPikQs62hl3ha89caXOF+WhQ3jeiJ0fbbePK+8eQyfhr4CbzsziEyYf2y80OftLTin/czY+NpgOA7VNlacxfKRg7CUJeGNH6ahR/d38AOTg8Ea2IDeDNdNbRyWbcWSUS/BXi6CxNobgXP2IEdZibwtb+GNL8+jLGsDxvUMxXrVbUMurRWcwhehPdHS1ozF0BLOnUchMvY6U1gDcOm/AbsM5h7DYO4ak1MVOTiw8HX4uSggEclg2/Y1zNuXg4d6NGNwbFNjIFceCwncx3yGyKEixK/biGTtsy2cY6UeKnIOYOHrfnBRSCCS2aLta/OwT5tPXPrnrC/M38c+DcUr3nYwE5mwPtnAq8/b2FLTQH2euC7uYd+sXgiYuQe6Q8Yc9On1nmYc4ayjXHWSq84+oTGDS0+cdujjMccIjrzn0iS3xmqh+mW0Z8Ht6ECSiKXU9KVJ9J9DJ+jYN3Opt72InP9vF90hJV1f3ZfEQjl1mLyZEhJiaHv8TSpOmE3t5Zb00qSVtP9EIsWun0k9bcXkOnEX3Xx4nTYOsSKrYZvptvYadHc7jbFTUPC6a0QPU2lpgIKsOk2m1QcSKenE97RoiBvJPd+iA3dVL35IqUsDSGHViSavPkCJSSfo+0VDyE3uSW+pX1BER971IknTl+mfX8fRybgtNLuXPZkKRNRzaRY7XkwJs9uT3PIlmrRyP51IjKX1M3uSrdiVJu66ySzSbxM3+bTt9aYk6/Exna/Q7io9Su94NKHen1/W7tBHER2d4U0S6240fcNROnl0I83s6UhmUrGmv8rf6d+9ZeQ69TCVas+gsp/pPS+Z1h6Vy5ZSgMKKOk1eTQcSk+jE94toiJucPN86QGqX6UVJv/+7N8lcp9Lhmobp5/e8SNZzqWbzdjQFSqXUxO1Vmrs5jk4n7qHIwOYkcphAuws1L6mH6hyJmKRNmX//c4hOHPuG5va2J5Hz/9GuO+y48jqt7ismobwDTd6cQAkx2yk++xjNbi8nS6axlftPUGLseuYDWxK7TqRdN1lErm+kIVZWNGxztWKYZMaQnSKY1l1TctrP6Z+iI/Sul4SavvxP+jruJMVtmU297E1JIOpJS7NYMIsTOPq3mvqKhSTvMJk2JyRQzPZ4Yrvrw+kbrlhzaV9lyrvkJWlKL//za4o7GUdbZvcie1MBibQxbYxWHv7vQ2pv1opCo49QUtqvdPDTYeQsdqI3DxQZ0efbFB0oIZHMhQZE7KQTSfG0epQLiSxsyLnL32lt7P8ocecH1EMhpe5LzqtPV9UcqV1ozb+lTcjt1bm0Oe40Je6JpMDmInKYsFt9XKNROwrd/UDVUfqwvRm1Co2mI0lp9OvBT2mYs5ic3jxARYUptCtyGLmKWtCQ8GjalXxHT56fp+0h9iRtOZr+ffA0paYm0p5PVOcomPbUATK6NnDFodpGlg8nv/uM3mgrJtu+s+k/X/1I54oM10C9eivjqpuqOEhJ2sSNXp27meJOM9siA6m5yIEmsGQuTNlFkcNcSdRiCIVH76Lku1xae0j/+7A9mbUKpegjSZT260H6dJgziZ3eJJUs9MKhf712FRrOPc7c5dRnGSUt9KMmlr705ppDdPrMEYqeyOxSDKBVqUl1NHPX8NjGumMwV4yilI6+405i71l0vEy7qxqV/vqRRNKf/nNddTGumOuhLIkW+jUhS983ac2h03TmSDRNZDmjGLCKLlfc5tC/EbreHkL20pY0+t8H6XRqKsvXT2iYq4gUbLzXtKCHJ66Lh3R94xCyshpGNUPGXdo+xo4UwevompK7jnLVSS4/PKkxw7CeuO3Qx+ONERx5z6lJbo3V5tlOdCVdKSq9avampLx1waSweI2+usEExQq/RNqXVuVWRamQYsbYkKz7YjpXdYrqnPWDSSHvQyuvKil/22g2SRlM61XJyrizdSTZNB1JW5koS2OnkIu0Gy2uni0ybm+hEdYWNHgDG1RKY2mKi5S6LT5PNa+4TVtGWJPF4A0sAXbSOFsZBXyaVX1cmbuWBlpoJ46FMTTGRkbdF5+rOV+ZR+sHK0jeZyVdVWoGM12bjOP+rlBykHSiiJSH6u3in94iF8tAWvO7gXaKvqfxtmyQr2WP8up/aIC5sRPdUoqd4kLSbotrJtiM21tGkLXFYFK5TD9GTnRZAQpYfoW9WkNZ3HTykHahyIxaF6uN+hwJdY1Kr7Enbx0FKyzota9ukFI90ZWQtO8qqnJvYcwYspF1p8U1gmHnrKfBCjn1WXmVXZu9iRjNitTg9aSRzB3aOtKGmo7cyiLPZT+3fwp3jiNbWQB9qhoY1Sgpd+1AshBrBkuu/j1UFS2JlPquyq32k144fcMRay7ts9zbOc6WZAGfUo0pubR2oAWJ1TFtnFYe7Awha3N/ivz1nsa+imz6ae0q2p3G3u0YOdFVXb+qT6WH3iJnkQu9dYhNTlWw/PviVSk5TNqn3qw70ZWIA2j5lWoFUtx0D5J2idRsqnxaNdF9sJNCrM3JP/JXuqfpKGX/tJZW7U5jnmE1OCWCOsl8aN6vqvzUk+fKG3TqmxW04ZjqDa+Wsnia0VJKXSIzWGvG1gauOOjaqLFfRm7Tjqh9yFUD1YNkHb1x1s2qOAQspxpXxtF0D41tqkEzJaITyXzmkdo9nFp7QDtDrMncP5J+1TibyeInWrtqN6lkoRcO/evLI67cK+DIXU59qn0gIZ+PzjBlaSk6TJFjJ9EXp0rraIZ7bDOYK0ZhaKLLxpTvRpGFiNVfNh5zx7w+6vot8aGPztQ0XnQ4ksZO+oJOlXDpn0vXSrpx6htaseFYrUlbGcXPaKnO14aGjKehC2X+Nhptp6DB669rzrmzlUbaNKWRmkkGh7a56iR3fj+pMcOgnjjt0MfjjhGG855Tk5w1Vpdn+giXiVsAenmaaLeEsOvmB8/y80i7oPn8RGDlAhdrbZcqLiP1fDFadPeHe9UpqnMCeqKNMhMpGQ9hNSgEQWbHsGPvDVRW3sTe7YchHsj22SiRl5yKaxXnsWZ4B7Rr107z90oEEkoe4EJ6Fh7kJSP1WgXOrxmODlXH272CiIQSPLiQjvMX03Cu0BG+nVugusd2PdCtpan63xWXU3G+uAW6+7tXH2cvQEDPNlBmpoB1T42OTUZi3m80gu1SsePbJFSgGHHb9uF+r9cx1KHhdpRXWZ/v26NjV9ea/joG4OVWmv5yosxDcuo1VJxfg+EdqvzRDq9EJKDkwQWkZ1V/YNc4BAq4e9YsjhEqFDAXVKC8XPdjGh1M3BDQy7OW/7vBz7Mc59MuaFeTC2Dl4gKNeytwOfU8ilt0h3+NYNg5AejZRonMlAwwxWBQSBDMju3A3huVqLy5F9sPizGQ7bPhsj8zm8M/JchOO4dCR190blHdY9j16AaNZIzpH0NgBRcX62o/NQinbxpGyaH9rJJspJ0rhKNvZ9SYYoce3VpCbUojtSLt/QbGO/+C+Z2bw6lDP4yf8wMK/UYhqG0T7Su4EMDCwwuO2j4J5E0gM3WASwuRZodQDrlMAGWF/gdiBAp3eNpXKxAKhTkEFXr6Ku2NN8Y745f5ndHcqQP6jZ+DHwr9MCqoLRrqqU6eM1/5vT4enQt2YvHsqXhjeF90bjMEq7KUrE5VVn8czlkbKjjiYBDuGqi2XEdvRp7D4qBw90SNKxVQmAtQUV7fl5xaK5ei9xvj4fzLfHRu7oQO/cZjzg+F8BsVBIOy4NK/jl1cuZeKLIO5y01lfjoyci3R0a8txNp9MOuDj7asw9t+dZ77NmJse/xcMcxDFs9yAcsXs0ojY16bSuSnZyDXsiP82lZby8z9CFvWvQ0/GYf+OXXNfOH3OsZ3LsDOxbMx9Y3h6Nu5DYasyoKSnV9pYMh4srpgNdlqEEKCzHBsx17cYNe+uXc7DosHsn023Np+wFEnz1/k8MOTGzMM6Yk7R7WN1IYrhpxjhNBA3htRh4yssVUYmcZPBoFUBlntaJiYMkES65hmU2BiAlOB5t+qZ5iUTJmmIt0uCtg5pizRKpXMlCb9MHaINYbv2I3cgSbYfswcwd/2hyV73bUyFh2LTgh5PxStazTCEMK8lQdMy46yK1igU8j7CNV9AYTmreBB+1jZF8K09uUFUkgl2g6WK5kMTaHbPQEzie1gBqm6p96jY5ORyHsjZGgLbNr5HRJnBWD7j2Xo9+lgNDOkZAYJmG9Mal1MVcjYwF8bXQGoikbVnjJoXBaC90NbVxcKNUJztPLgkEodZVWyaqSzS2AC5godON3C/C3TFQyzj12qSjAqfzM9VLVTrhGMrqjZdTUhUar706TfWAyxHo4du3Mx0GQ7jpkH49v+asVw2K/EIQ7/VBxkEyyhSp81CKRS1EiGu39qPxkjGE7fGIh1WZlh7ZtWQGOKjiWQSiVaXzdSK1YD8PnJJAz8bit27v8JR9Z9gK0rlmHomnjETNBMBhrssxoBRCLtpLYagcplRqHKRd2XNuRnKwz4/CSSBn6HrTv346cj6/DB1hVYNnQN4mMmwln7qtro5HllHmIm+mP8tgdoExCATu0DMGHEazj50Wxkal+igrs2VEBpMA6GKeOqgUhWdUJHb9znqFDlXR2nN9QhTq2pZPE5TiYNxHdbd2L/T0ew7oOtWLFsKNbEx2BirQFeBy7917GLK/ceahzdYO5W0aA+H7JYsbNNRMZExoixzVCuTKx1c6VRlCONTfyUTf3hzd6tGBdzXR6q3kwyh+s1l1P/XLpmk2+WZ/7jt+FBmwAEdGqPgAkj8NrJjzC7dgLp4wnrgthb235jh8B6+A7szh0Ik+3HYB78LTRDBpe2y3DUYJ0k7OPI7yc2ZhjQ03c9uHO0Plwx5B4jrOwayvvv0INLk0bW2Co4pk5PFmXOeZwv0m4witLScNnEHd763jabusDN2RS/s9do15aoKWHvvi/CCa5uqgFPCv+xw9E8cRc2rY/Bz02HYmxvM7bfBA5uzpAXl8CyewjGjx+v+Rs7AL4e3vDxtIbIwQ3O8mKUWHZHSNXx8WMxwNcD3j6esHNrCTfJNWSk57O001KWiQtXmfAYpi7sfNPfWcG4W3McJUhJvQg4uULdvUYjQY8xw+F+dT+2LNuCgxiIMUHW2mP6MWnhDU+5qr+3a/pTeh6Zl5ka1bBkMCGUlz2oKdbl13H9tvbVJg7M33IUl1iie0iVP8Zj7ABfeHj7wNPAnSfVoEflZXhQ0zCuX6/Vj8aizMF5XcEg7bIJ3L313dEyhQuLuenv7DW6goEmJG5Qh0Tqj7HDmyNx1yasj/kZTYeOhUYyHPbbOnL4RwyXlm6QXMtAen7N9csyL0AjGSP7ZywGfWM41iYc2rcWu6ClmwTXMtJRY0oZMi9cZeWN0SitVOLO6e+wYsd1dJy0ANG7TiIrNwXLXynCgS37cb2SQ5/PkMo7p/Hdih243nESFkTvwsmsXKQsfwVFB7Zgv2r1hsDwoFL5ewxWb7uNPitO48x/v8OXy8IwLbgZHt5n59Z6I8IJq4EG42AQ7hpYP0qNOac+td3DqTXcwenvVmDH9Y6YtCAau05mITdlOV4pOoAt+69rW9HDE60NnvAwmLsqDOtTaOMKZ4t8ZGXWWkRXcQ7rpoxF+L5ruk7hHNtMOHJFe0Ijqbz1I77aeQXNBg5DgKQxMRfCxtUZFvlZyKzVmYpz6zBlbDj2/LLNsP65dF35O2JWb8PtPitw+sx/8d2XyxA2LRjNHt5nvlX9zwBPYcyQ+o/F8OaJ2LVpPWJ+boqhY3tDM2RwaFvEUSft3Djy+0mNGYZr761mHHboS3quGHKNEYq7BvL+Fqcm8Yg11pi69cSgu/sQNTsGF0qUKM7chlkLdkMQOB5D9d6qtEHwuCDIY6MwLfo08pn3Si59j9nhMSjuNhojvTXTfLHfWIxyO4Fly46jxYgQdNd+SmQZOA7DbM/gs7ejcDi3jCXALSQun4D+vYYiMqFY9QKMG2aLM5+9jajDuSxEStxKXI4J/XthaGQCiq0GsXcIVjiy5F2sP1sAZelV7J0Xge3XtE60Cca4IDlio6Yh+nQ+C24JLn0/G+Exxeg2eiS03dOlNAP7oqPxQ3LVNwc0jLjLGIxsdRnrl+2FeNBo9DPXHmgI80CEjrJDwifv4suke1CW5eBARAS25WknukIFXFyscPvoduzJZv5gxw8uXI4fC6rKtiUCxw2D7ZnP8HbUYWhclojlE/qj19BIqFymHyEULi6wun0U2/dkMz+WIefgQiz/saBmQGgsdBf7omYj5kIJlMWZ2DZrAXYLAjF+aDO9wrUJHocgeSyipkXjtEYw+H52OGKKu2H0SG82VKkQw2/sKLidWIZlx1tgREh39rZCBZf93P6xGjQBI6yOYMm763G2QInSq3sxL2I7aiRjTP+MxJBvuGLNpX3VIx4TRsDqyBK8u/4sCpSluLp3HiK2X9MOMo3RihCCS7uwaNp0LDyQw67JBsb7ufjtTjmsnZ1hacqlz2eHUHAJuxZNw/SFB5Cj6Shyf7uDcmtnOFsyO8QSiKkI9+5phqN6qO7ACMpxKzsb95jDlHd+wVfTF2DvPWZWWc2qYW644mAYzhqoh8aco4sAYokYVHQPavdwaU0owKVdizBt+kIc0Dgb93N/w51yazg7q26bNcATrg1NOXKXs37Ke2P0UHskrpyLTemFbKwtRPqmCCza+AsKLa3qaIZrbBMZzhVmYEXmj4heuwNnak3M9fLwLn47n470dPaX8j8cjVmOycGTsKXiNSz8KFD9KE5jYi7vPRpD7ROxcu4mpBeyyWdhOjZFLMLGXwphaSPh0D+XrlWflApQfisb2ZoG8MtX07FA04DhbwJ4GmOG2A9jR7nhxLJlON5iBEJqJhkcdZSrTnLn95MZMzhqrxWXHfp4zDHigeG859Tko9ZY7bO6Tx31ogmrrjQowIHEIjGJhBJy7DWH9uepHiXWLM6QOU2mg9VP+jOU1yk2vD85ywRkIpWTxFRKjgEzaOcVzSItDRWUEdWVJKJOFH629n4l3Y6PomB3MxIKxSSVmJJA6kR9w2LphvbpZeXteIoKdiczoZDEUgmZCqTk1DeMYrUvUN6OowX9nEgqFLE+i8imWygNayfXLo5RdS+Wwvs7k0xgQlI5O1/qSAEzdpKme3psurmGBkhE1H3JRe0OQzyktIVdSGzqTtOOaBfbcHH3BC0NdtX0V8z62yWY/B2l1f0tS1tDw91lJGR+lDN/ugbPp6kvm1UfZwZTfFQwuZsJSSiWMn8LSOrUl8Jib9Q88K2PsjRaM9ydZEJT5gfWtmswzZ/6MplpH6hXLxKQOdCk/TV2PEwOI1+ZL4Ul145ZLdSLg6yo66AAcmC2iEVCkjj2ojn78zR9US9Gk5HT5IM1i0NUPo8Np/7OMhKYsH6wmEsdA2jGzivMm7WoyKCorhISdQonXclw2M/pH6a5uAXUz0lKQpXGRTbULXQYtZNrF7Rw9E+9OEjmRJN1kkAPXL5hcMWaS/sqW+MW9CMnqZBE7Boim24UOqwdyati2hitPMyirZN8SGHC8sXcgmQsp2z9ptGObM3SAcN9Vi2CkpHDpP1UpaKy47PIW9adllysWnpwj9YHy8guVPNNCnUXo8kcJlGNBB9ScpgvyXzDNJtqn2oXo7FjWVsnkY/ChNUdc7KQMftt/WjajmzNIocHR2mGl4RMJObUflZc/TxX3qHYuV3J2pT51qwJScXW1GFsFM0JVJBiyAZWfxqod/rgiIOhxWhsh8EaqF9vXHWzfhxYMlOYr4x8w5LVmw+OziAviQlJzNvTrPgyTq09zNpKk3wUZMJywtxCxvLGlvym7SCtLOrDof+G7DJcG7hy14icyk+gxUGuJDMRk5xpRihzpaCPj2u+hURHM/GqThoe2zhypXDjYPWYV7VguT6axWhsIqSaibM/AbNbTBb23uQfEk4/XKypxWrbOcbK+igpP2ExBbnKyEQsZ/0Tksw1iD4+zqzl1L/qdEO6VtKd2LnU1dqU1RYzaiIVk3WHsRQ1J5AUiiG0oaFOPRVdaKjIiKKubOzuFH5WZ78xdZRrTDFYZzn6Z/SYwaEnTjv0wdV3DtsN5z2HJo3RWC0Eqv9oprxPlztfDkSLcEfsyPoc7TJTcE3ijg5t7CHVHjdERX4WkjNuAPat4ONpU/OwvzEoC5CdkoacIgkc2/rAw7ru2UoUZKcgLacIEse28PGwrtN+KW6cO4usYlu07egORb23hRXIz0qGpns+8LQx1LtK3Fw7HH/HWuz+RzPtvoZgr904HK0/8cb+pI/RzWijy3HzfBIuFtmhXbs8/KtDP5x6MxU/v++hPXwLmUmZuGveEr5tmmnvZuqiLMhGSloOiiSOaOvjgXou0wt7d5WZhMy75mjp2wbN9DX8KNz5EgNbhMNxRxY+b5eJlGsSuHdoA3vjBIOs5AzcgD1a+XjCYEj0wGU/p39Kb+Dc2SwU27ZFR3dF/TsJj9k/o33DGWsu7atMOYezWcWwbdsR7vXF3witVKIoNx2pl+5BaOuFDq2b6dYAI/T5rKgsykV66iXcE9rCq0NrNKvV0crCbCSd/Q2Vjj7o4qbvzmMlCq+exdmrpVB4dkC75nLt/sbBFQeDcNZAPTTmnGqY7dlJOPtbJRx9OsFNdQuSS2uVRchNT8Wle0LYenVA69rOrsvTrA1cucupTzYeXEpGep4Sdq184W1bcwF9mjE8tnHkypOmMTFn/ryUnI48pR1a+Xqjxlzj9G9I15WFV3H27FWUKjzRoV1zcGbQHzZmcNdRrjrJmd+PO2ao4dITtx36eKwxgivvDWrS+Br77Ce6l9dh0FPN1ueY0pOICNmAVivWYHQLPWKuQnXv/0ESIgf0w/6gePw8t42RH1HUofw4/tm+zkT3RaG6aF3Gur+sYBqA9w3PXxle/zz64HXB0wAGZltPFoFACBOhQOeZ/L8c0q4I2xFteJKLCpwO6wQLaz98Uvp3LJ7ayEmuGgGEJiYQvohOZ30WmgjZ//2VBdMAvG94/srw+ufRB68LngZ4Znd0eYxHWXAVGVdKYd+m9kdBPDw8PDw8PDw8jwI/0eXh4eHh4eHh4flT8sweXeDh4eHh4eHh4eF5lvATXR4eHh4eHh4enj8l/ESXh4eHh4eHh4fnTwn/jO6zoiABqyKPotnfP8JIr4a+R6ESBecOYNP6HYhLuYrbD83g7NsP49/+Bwa4a74uRXl1D5auTIbXWx9hhKduO+W/bMD8b4sRNG8aAhRARfJGzNtyH4EfTkOPK6p/p6C8gWgLxD4YFzkRnZ6bxW9FOP6fBfjJaiLmj26t5+cbnw+UV3bj49XZ6D7nHfSWncLa8AMwnxCOkLbPuMclJxu4thJX9yzFvxPkCHr/HfSx49/b8vDw8PD8deBHvWdEZVEydq7agKO/q34CUh9lSIv+Gzp2GotVaVK07zcMI/q3gfLYIrzWpS8W/Kz52WDltZ/x9cqNiPutfjsVmfuwauUO/Kr6vWdGeeYBrGbbv6h+prKsEPl37uCO6u92Jg5t+AKbDl/E7ap9+YXqnwZ8bqgsRsr3X+DL2CtoyGPPA8q8eGxaFYMz95iPy3Pwvx9/wtkb2p9dfpY0dO3SE1jxQRRiyQcd+UkuDw8PD89fDH7ke04oPxOF0JmH4fTRIZz5cQ0WzJqOd+csxbc/H8K/2qYiasoSnCrXvrgRiHu8i3Vfb8bmzexv/Vz0tTWBXf8PsV61zf6+XvcuevBfZfZ4KF7HV2mn8HGfP+D3vBq4tvL3m7B6fQ22RPaGQruPh4eHh4fnr8IznOhWIOfAQrzu5wKFRASZbVu8Nm8fcrQ3oMqv7EHYMF80byKCqcwOrQNn4puMEs3Bgh/wjv84LNu6BKNesodcJIG1dyDm7MlB9f2r8ivYEzYMvs2bQGQqg13rQMz8JgPaFtjlc3Bg4evwc1FAIpLBtu1rmLev6vxK3IhbihC/FrAQm0Jq2woDZn6Lc6Xqg8jfMRX+IXMxf0RrWJtZw/eDo5oDOhhuwzDF+O/qL5HqOAGRs/xgrt2rRtoB7yxegvdGd4Dkj7zlakQMjInhkg0RGNq2KaRiMzh1n4Jvz6VhyxR/uJiLIbbyQtCieNzV3JBWQ/nHERnsDSuxGBauL+PN6CQUqo/kY8dUf4TMnY8Rra1hZu2LD46ya1XeQNzSEPi1sIDYVArbVgMw89tz0BuG4iOY17cHJm7KUf8YnYZynFocDP8p27TbupSkbcb0V71gLRXD0qMv5h66qf4xeTUqG3v0Q0S86h1JI/tnUKcGckjn2gxtPnQOCMW/Fr2JV31r50MBfnjHH+OWbcWSUS/BXi6CxNobgXP2VOcjDw8PDw/PnwLVM7rPgrKkheTXxJJ831xDh06foSPRE6m9mYIGrLpMVJxAs9vLyfKlSbRy/wlKjF1PM3vakth1Iu26qSS6HU2BUik1cXuV5m6Oo9OJeygysDmJHCbQ7kJV68WUMLs9yS1fokkr99OJxFhaP7Mn2YpdaeKum6SkMkpa6EdNLH3pzTWH6PSZIxQ9sT2ZKQbQqssV9DB1KQUorKjT5NV0IDGJTny/iIa4ycnzrQN0l519fXVfEgvl1GHyZkpIiKHt8TfVNtXGcBtEyt//Tb1lrjT1cKnmhNqUJdLsNiKyHf8Ds8QwZSffp1ZiN5p2pH47xVuHk5n4FfrsKvOZavu7UWQu9qdlzEYdyo7RdA8xeb33M/OMkXDFwJgYSkQkcxlAETtPUFL8ahrlIiILG2fq8ve1FPu/RNr5QQ9SSLvTkvOsv8rrtLqvmAQmVtR56pcUezKevpnbm5qJXOnNffnVx4XyDjR5cwIlxGyn+JtllLo0gBRWnWjy6gOUmHSCvl80hNzknvTWAVUU6pJP215vSrIeH5PqkmpKj9I7Hk2o9+dMl3UpOkLvekmo6cv/pK/jTlLcltnUy96UBKKetDSLNaD2kR2F7n7QyP4Z1qnBHKp9bc58uE3RgVKSNnGjV+duprjTibQnMpCaixxogiaheHh4eHh4/hQ8o4luGcVN9yCJz0d0pnpmVUSHI8fSpC9OUWHMGLKRdafF52omZMq89TRYIac+K6+SUj1JElPA8itskNZQFjedPKRdKDKDnVMYQ2NsZNR98TmqbkGZR+sHK0jeZyVdfRDHJnYS8vnoTM3ErugwRY6dRF+cKqDYKS4k7ba4ZrLDuL1lBFlbDKYNbJKmmuhKpH1pVW7V1etSytEG646hie6DfTTJQUStP0jknHj+oRNdAzEwNoY9l2ZpY1RKh95yJpHLW3RINTdjKPO+oFelDjRpX9VEUULSlz+hzKomlbm0dqAFKYZ9TXeqjvddRdVhKY2lKS5S6rb4fI0O2KRuywhrshi8geq/PSG6vyuUHCSdKCLloXq7+Ke3yMUykNb8Xj/WhTvHka0sgD5VTWrVKCl37UCyEDc00X3E/pUZ0ul9gzmkc22ufFCqJroSEgcspys1wWTXllKXyAztDh4eHh4enhefZ/PoQmU+0jNyYdnRD22rnwM1Q5+PtmDd2x1xOfU8ilt0h797zbcICO0C0LONEpkpGXio2iFQwN3TvvpZC6FCAXNBBcrLCRWXU3G+uAW6+7ujugWhHQJ6toEyMwVpN9KRkWuJjn5tUXP5Pvhoyzq83ekOklOvoeL8Ggzv0A7t2mn+XolIQMmDC0jP0nwULLBygYt1A+5S5hnVRoMIzCCXAeWlRjznIBBAgEpU6vv2BNUbF3b0qf3Ud4MxeGhkDC3g4eWojZEA8iYymDq4oIVIvQNCuRwygRIV1R+fm8ClW0+4VjXJYtq1iwdKz6XigtqlAli5uKAqLMq8ZKReq8D5NcPRQRuDdu1eQURCCR5cSIe+MJj3G41gu1Ts+DYJFShG3LZ9uN/rdQx1qBvrCmSnnUOhoy86t6juEOx6dEPLBr9g4dH6d+G6AZ12LjaQQ37abQ1c+ZChCQYU7p6wrwkmFOYCVJRzaJWHh4eHh+cFou5o/pR4qJ68mJqI2PBan3JlBTso0v0KKYEJTNmOykql5hlItm1SM4dSU91WOZscsbNFug3ARNMAlOUVULLjJiJ9Vy9DGRvbLTqF4P3ZszG76i9sGaI3LMbfPDSNCtjFTRucQBrXRoOIWqOdlwi56Wm4Vev51CqU2TuxcO7n+O9VJZsMyiBjE7LC+3VnupW4X3AfFQIZ5GZPKawGYmBcDEUQaSe11bBZeZ0mdRCJRToiNTVVbakm9CrYuSamNTooK0M5LNAp5P2aGLC/sGXR2LD4b9AbBnlvhAxtgQs7v0Nifiy2/1iGfqMHo5keF1YomYiFpjo2CqRSSBrUxSP2jwzp1HAO6cCVD5pgsL41lFA8PDw8PDx/Dp7NRFdoA1dnC+RnZeJ69USuAufWTcHY8INwcXOG6e9pSKu9CqkkBakXASdXN9SdG9XF1MUNzqa/Iy3tbq1FRSVI0TQAD3tXOFvkIyvzes3xinNYN2Uswn8UwM1ZjuISS3QPGY/x4zV/Ywf4wsPbB54N3cWtjYnD47UhtMXAYa9AcnILNqXXvaNWhuQNUVj0xT5cZBMU0xaecJEWIPl0Gps01eY+TiSmg5p7oKWZdtczw/SxY6gfJXIvXESRdgsoRGpqNkzdvPROWk0cmA7kxSix7I4QbQzGjx+LAb4e8PbxrL6zqosEPcYMh/vV/diybAsOYiDGBFlrj9WG2djSDZJrGUjPr7GxLPMCrhr5/Wdc/Wtqa0CnB8oN5NA+7bYGrnxwa1wweHh4eHh4XjiezUQXcvQePRT2iSsxd1M6CisrUZi+CRGLNuKXQkvYBI9DkDwWUdOicTqfzRpKLuH72eGIKe6G0SO9Dd7xU2MTjHFBcsRGTUP06Xw2/Jfg0vezER5TjG6jR8LbvDdGD7VH4sq5bCJZiMrKQqRvisCijb+g0NIFgeOGwfbMZ3g76jByy9j06lYilk/oj15DI5FQrL2GQSwfsw0hWowLx4x26Vg0chyWHbzAfMR2l+Xi5y/+D2OXnUerqWGYoPoM36I/Rgc1RcaKULyx+DscOX0WyScPYuO8ELy37S5a/W0MujXm261KM7AvOho/JGu+r/dReewY6oVwb/9ifLgrG6WVRcjY8h4W7BNh0PjBaKpPuZaBGDfMFmc+extRh3PZWwQlbiUux4T+vTA0MgENhUHcZQxGtrqM9cv2QjxoNPrpfO1FDVaDJmCE1REseXc9zhYoUXp1L+ZFbMe1mtmkYbj6JzekU0eDOaQDVz4YE4yKTPwYvRY7zuRrd/Dw8PDw8LyAaJ/Vffoo8ylhcRC5ykxILJeRSCgj16CP6bh6MbySrseGU39nGQlMpCSXmJLUMYBm7LxC6iVCqoU2MgeatF+7aonxMDmMfGW+FJasWUSkvB5L4f2dSSYwIalcQqZSRwqYsZOuaA6zyyfQ4iBXkpmISS4TkVDmSkEfH1d/IwIpb1N8VDC5mwlJKJaSxFRAUqe+FBZ7g/VMsxhN5jSZDupZR1aNwTbYYUOL0bQo82Jp4bA2pBAJyETShMzEJmRi7kEDP9pLV2tWL7FLHaMlw1qTgl1DFULVn0DiQD2mbqVztZp/pMVoN9fQAImIui+5qN1RB84YPGoMy+j4LG+SdV9CF6u6d289BctqL+aSU8vBodTbQUJSKYuZyJ4CPjxI19QOVR2XkdPkg1Tbo8rb8RQV7E5mQiGJpUwHAik59Q2j2Bv1F5fV8JDSFnYhsak7TTtSY199lHQ7bgH1c5KyvohJJLKhbqHDqJ28ocVoj94/wzo1kEO1r616qcF8UC1Gk5HDpP1Ube3DZArzlZFvWLJmu3AjDWZ66BSRotnm4eHh4eF5AXnmPwFckX8Jyel5UNq1gq+3bc2iGxUV+chKzsAN2KOVjydsdA4aQwXys5KRcQOwb+UDz3oNsOOXkpGep4RdK1942+oeVxZkIyUtB0USR7T18YD1I1//ybRRdusCUjOvocTEBh7t28Cxif4b76U3z7PXXUex0BIubdrDzUrfQ6jGUomba4fj71iL3f9opt3XCB47hvWpLLqKpORciNxfgk9zuXavIZQoyE5BWk4RJI5t4eNhrauzejDbNw5H60+8sT/pY3Tj6nPpDZw7m4Vi27bo6K5oxMciXP0zrFODOaQDVz7w8PDw8PD8uXnmE12e55TSk4gI2YBWK9ZgdItn9ETL84DqsYMHSYgc0A/7g+Lx89w2jXzMgoeHh4eHh+d5g5/o8mipRGWlEMK/0BxXdcfz9LyuePWTFAjaz8Luw4vRq87jrjw8PDw8PDwvLvxEl+cvjbLgKjKulMK+jTfqPCHAw8PDw8PD84LDT3R5eHh4eHh4eHj+hAD/D1Xhq2NusVZZAAAAAElFTkSuQmCC;" parent="1" vertex="1">
          <mxGeometry x="420" y="30" width="698" height="135" as="geometry" />
        </mxCell>
        <mxCell id="-0398Z63P85dClS6kvkM-2" value="CLIENTE" style="whiteSpace=wrap;html=1;align=center;" parent="1" vertex="1">
          <mxGeometry x="690" y="290" width="100" height="40" as="geometry" />
        </mxCell>
        <mxCell id="-0398Z63P85dClS6kvkM-3" value="PRODUCTO" style="whiteSpace=wrap;html=1;align=center;" parent="1" vertex="1">
          <mxGeometry x="690" y="480" width="100" height="40" as="geometry" />
        </mxCell>
        <mxCell id="-0398Z63P85dClS6kvkM-4" value="compra" style="shape=rhombus;perimeter=rhombusPerimeter;whiteSpace=wrap;html=1;align=center;" parent="1" vertex="1">
          <mxGeometry x="680" y="380" width="120" height="60" as="geometry" />
        </mxCell>
        <mxCell id="-0398Z63P85dClS6kvkM-5" value="suministrado por" style="shape=rhombus;perimeter=rhombusPerimeter;whiteSpace=wrap;html=1;align=center;" parent="1" vertex="1">
          <mxGeometry x="910" y="470" width="120" height="60" as="geometry" />
        </mxCell>
        <mxCell id="-0398Z63P85dClS6kvkM-6" value="PROVEEDOR" style="whiteSpace=wrap;html=1;align=center;" parent="1" vertex="1">
          <mxGeometry x="1160" y="480" width="100" height="40" as="geometry" />
        </mxCell>
        <mxCell id="-0398Z63P85dClS6kvkM-7" value="Nombre" style="ellipse;whiteSpace=wrap;html=1;align=center;" parent="1" vertex="1">
          <mxGeometry x="500" y="260" width="100" height="40" as="geometry" />
        </mxCell>
        <mxCell id="-0398Z63P85dClS6kvkM-8" value="Apellido" style="ellipse;whiteSpace=wrap;html=1;align=center;" parent="1" vertex="1">
          <mxGeometry x="540" y="200" width="100" height="40" as="geometry" />
        </mxCell>
        <mxCell id="-0398Z63P85dClS6kvkM-9" value="DNI" style="ellipse;whiteSpace=wrap;html=1;align=center;" parent="1" vertex="1">
          <mxGeometry x="680" y="190" width="100" height="40" as="geometry" />
        </mxCell>
        <mxCell id="-0398Z63P85dClS6kvkM-10" value="Direccion" style="ellipse;whiteSpace=wrap;html=1;align=center;" parent="1" vertex="1">
          <mxGeometry x="820" y="190" width="100" height="40" as="geometry" />
        </mxCell>
        <mxCell id="-0398Z63P85dClS6kvkM-11" value="Fecha_nac" style="ellipse;whiteSpace=wrap;html=1;align=center;" parent="1" vertex="1">
          <mxGeometry x="920" y="250" width="100" height="40" as="geometry" />
        </mxCell>
        <mxCell id="-0398Z63P85dClS6kvkM-12" value="" style="endArrow=none;html=1;rounded=0;entryX=0;entryY=0.25;entryDx=0;entryDy=0;exitX=1;exitY=0.5;exitDx=0;exitDy=0;" parent="1" source="-0398Z63P85dClS6kvkM-7" target="-0398Z63P85dClS6kvkM-2" edge="1">
          <mxGeometry relative="1" as="geometry">
            <mxPoint x="620" y="280" as="sourcePoint" />
            <mxPoint x="780" y="280" as="targetPoint" />
          </mxGeometry>
        </mxCell>
        <mxCell id="-0398Z63P85dClS6kvkM-13" value="" style="endArrow=none;html=1;rounded=0;entryX=0.25;entryY=0;entryDx=0;entryDy=0;exitX=0.5;exitY=1;exitDx=0;exitDy=0;" parent="1" source="-0398Z63P85dClS6kvkM-8" target="-0398Z63P85dClS6kvkM-2" edge="1">
          <mxGeometry relative="1" as="geometry">
            <mxPoint x="660" y="240" as="sourcePoint" />
            <mxPoint x="820" y="240" as="targetPoint" />
          </mxGeometry>
        </mxCell>
        <mxCell id="-0398Z63P85dClS6kvkM-14" value="" style="endArrow=none;html=1;rounded=0;entryX=0.5;entryY=1;entryDx=0;entryDy=0;exitX=0.75;exitY=0;exitDx=0;exitDy=0;" parent="1" source="-0398Z63P85dClS6kvkM-2" target="-0398Z63P85dClS6kvkM-9" edge="1">
          <mxGeometry relative="1" as="geometry">
            <mxPoint x="760" y="278.57" as="sourcePoint" />
            <mxPoint x="920" y="278.57" as="targetPoint" />
          </mxGeometry>
        </mxCell>
        <mxCell id="-0398Z63P85dClS6kvkM-15" value="" style="endArrow=none;html=1;rounded=0;entryX=0;entryY=1;entryDx=0;entryDy=0;" parent="1" target="-0398Z63P85dClS6kvkM-10" edge="1">
          <mxGeometry relative="1" as="geometry">
            <mxPoint x="790" y="290" as="sourcePoint" />
            <mxPoint x="950" y="290" as="targetPoint" />
          </mxGeometry>
        </mxCell>
        <mxCell id="-0398Z63P85dClS6kvkM-16" value="" style="endArrow=none;html=1;rounded=0;entryX=0;entryY=0.5;entryDx=0;entryDy=0;exitX=1;exitY=0.25;exitDx=0;exitDy=0;" parent="1" source="-0398Z63P85dClS6kvkM-2" target="-0398Z63P85dClS6kvkM-11" edge="1">
          <mxGeometry relative="1" as="geometry">
            <mxPoint x="790" y="320" as="sourcePoint" />
            <mxPoint x="950" y="320" as="targetPoint" />
          </mxGeometry>
        </mxCell>
        <mxCell id="-0398Z63P85dClS6kvkM-17" value="CUIT" style="ellipse;whiteSpace=wrap;html=1;align=center;" parent="1" vertex="1">
          <mxGeometry x="1110" y="560" width="100" height="40" as="geometry" />
        </mxCell>
        <mxCell id="-0398Z63P85dClS6kvkM-18" value="Nombre" style="ellipse;whiteSpace=wrap;html=1;align=center;" parent="1" vertex="1">
          <mxGeometry x="1270" y="545" width="100" height="40" as="geometry" />
        </mxCell>
        <mxCell id="-0398Z63P85dClS6kvkM-19" value="Direccion" style="ellipse;whiteSpace=wrap;html=1;align=center;" parent="1" vertex="1">
          <mxGeometry x="1290" y="430" width="100" height="40" as="geometry" />
        </mxCell>
        <mxCell id="-0398Z63P85dClS6kvkM-20" value="" style="endArrow=none;html=1;rounded=0;exitX=0;exitY=1;exitDx=0;exitDy=0;" parent="1" source="-0398Z63P85dClS6kvkM-6" edge="1">
          <mxGeometry relative="1" as="geometry">
            <mxPoint x="1000" y="560" as="sourcePoint" />
            <mxPoint x="1160" y="560" as="targetPoint" />
          </mxGeometry>
        </mxCell>
        <mxCell id="-0398Z63P85dClS6kvkM-21" value="" style="endArrow=none;html=1;rounded=0;entryX=0.5;entryY=0;entryDx=0;entryDy=0;" parent="1" target="-0398Z63P85dClS6kvkM-18" edge="1">
          <mxGeometry relative="1" as="geometry">
            <mxPoint x="1260" y="520" as="sourcePoint" />
            <mxPoint x="1420" y="520" as="targetPoint" />
          </mxGeometry>
        </mxCell>
        <mxCell id="-0398Z63P85dClS6kvkM-22" value="" style="endArrow=none;html=1;rounded=0;entryX=0;entryY=1;entryDx=0;entryDy=0;" parent="1" target="-0398Z63P85dClS6kvkM-19" edge="1">
          <mxGeometry relative="1" as="geometry">
            <mxPoint x="1250" y="480" as="sourcePoint" />
            <mxPoint x="1410" y="480" as="targetPoint" />
          </mxGeometry>
        </mxCell>
        <mxCell id="-0398Z63P85dClS6kvkM-24" value="Nombre_prod" style="ellipse;whiteSpace=wrap;html=1;align=center;" parent="1" vertex="1">
          <mxGeometry x="510" y="530" width="100" height="40" as="geometry" />
        </mxCell>
        <mxCell id="-0398Z63P85dClS6kvkM-25" value="Codigo" style="ellipse;whiteSpace=wrap;html=1;align=center;" parent="1" vertex="1">
          <mxGeometry x="630" y="550" width="100" height="40" as="geometry" />
        </mxCell>
        <mxCell id="-0398Z63P85dClS6kvkM-26" value="Precio_unit" style="ellipse;whiteSpace=wrap;html=1;align=center;" parent="1" vertex="1">
          <mxGeometry x="800" y="550" width="100" height="40" as="geometry" />
        </mxCell>
        <mxCell id="-0398Z63P85dClS6kvkM-29" value="" style="endArrow=none;html=1;rounded=0;exitX=1;exitY=0;exitDx=0;exitDy=0;" parent="1" source="-0398Z63P85dClS6kvkM-24" edge="1">
          <mxGeometry relative="1" as="geometry">
            <mxPoint x="530" y="518.67" as="sourcePoint" />
            <mxPoint x="690" y="518.67" as="targetPoint" />
          </mxGeometry>
        </mxCell>
        <mxCell id="-0398Z63P85dClS6kvkM-30" value="" style="endArrow=none;html=1;rounded=0;entryX=1;entryY=0;entryDx=0;entryDy=0;" parent="1" target="-0398Z63P85dClS6kvkM-25" edge="1">
          <mxGeometry relative="1" as="geometry">
            <mxPoint x="720" y="520" as="sourcePoint" />
            <mxPoint x="880" y="520" as="targetPoint" />
          </mxGeometry>
        </mxCell>
        <mxCell id="-0398Z63P85dClS6kvkM-31" value="" style="endArrow=none;html=1;rounded=0;entryX=0;entryY=0;entryDx=0;entryDy=0;" parent="1" target="-0398Z63P85dClS6kvkM-26" edge="1">
          <mxGeometry relative="1" as="geometry">
            <mxPoint x="790" y="520" as="sourcePoint" />
            <mxPoint x="950" y="520" as="targetPoint" />
          </mxGeometry>
        </mxCell>
        <mxCell id="-0398Z63P85dClS6kvkM-32" value="" style="endArrow=none;html=1;rounded=0;entryX=1;entryY=0.5;entryDx=0;entryDy=0;" parent="1" source="-0398Z63P85dClS6kvkM-5" target="-0398Z63P85dClS6kvkM-3" edge="1">
          <mxGeometry relative="1" as="geometry">
            <mxPoint x="850" y="340" as="sourcePoint" />
            <mxPoint x="1010" y="340" as="targetPoint" />
          </mxGeometry>
        </mxCell>
        <mxCell id="-0398Z63P85dClS6kvkM-33" value="(1,1)" style="resizable=0;html=1;whiteSpace=wrap;align=right;verticalAlign=bottom;" parent="-0398Z63P85dClS6kvkM-32" connectable="0" vertex="1">
          <mxGeometry x="1" relative="1" as="geometry">
            <mxPoint x="30" as="offset" />
          </mxGeometry>
        </mxCell>
        <mxCell id="-0398Z63P85dClS6kvkM-35" value="" style="endArrow=none;html=1;rounded=0;entryX=0;entryY=0.5;entryDx=0;entryDy=0;" parent="1" target="-0398Z63P85dClS6kvkM-6" edge="1">
          <mxGeometry relative="1" as="geometry">
            <mxPoint x="1030" y="499.44" as="sourcePoint" />
            <mxPoint x="1190" y="499.44" as="targetPoint" />
          </mxGeometry>
        </mxCell>
        <mxCell id="-0398Z63P85dClS6kvkM-36" value="(1,M)" style="resizable=0;html=1;whiteSpace=wrap;align=right;verticalAlign=bottom;" parent="-0398Z63P85dClS6kvkM-35" connectable="0" vertex="1">
          <mxGeometry x="1" relative="1" as="geometry" />
        </mxCell>
        <mxCell id="-0398Z63P85dClS6kvkM-37" value="" style="endArrow=none;html=1;rounded=0;exitX=0.5;exitY=0;exitDx=0;exitDy=0;entryX=0.5;entryY=1;entryDx=0;entryDy=0;" parent="1" source="-0398Z63P85dClS6kvkM-4" target="-0398Z63P85dClS6kvkM-2" edge="1">
          <mxGeometry relative="1" as="geometry">
            <mxPoint x="750" y="310" as="sourcePoint" />
            <mxPoint x="910" y="310" as="targetPoint" />
          </mxGeometry>
        </mxCell>
        <mxCell id="-0398Z63P85dClS6kvkM-38" value="(1,M)" style="resizable=0;html=1;whiteSpace=wrap;align=right;verticalAlign=bottom;" parent="-0398Z63P85dClS6kvkM-37" connectable="0" vertex="1">
          <mxGeometry x="1" relative="1" as="geometry">
            <mxPoint y="20" as="offset" />
          </mxGeometry>
        </mxCell>
        <mxCell id="-0398Z63P85dClS6kvkM-39" value="" style="endArrow=none;html=1;rounded=0;exitX=0.5;exitY=0;exitDx=0;exitDy=0;entryX=0.5;entryY=1;entryDx=0;entryDy=0;" parent="1" source="-0398Z63P85dClS6kvkM-3" edge="1">
          <mxGeometry relative="1" as="geometry">
            <mxPoint x="740" y="490" as="sourcePoint" />
            <mxPoint x="740" y="440" as="targetPoint" />
          </mxGeometry>
        </mxCell>
        <mxCell id="-0398Z63P85dClS6kvkM-40" value="(1,M)" style="resizable=0;html=1;whiteSpace=wrap;align=right;verticalAlign=bottom;" parent="-0398Z63P85dClS6kvkM-39" connectable="0" vertex="1">
          <mxGeometry x="1" relative="1" as="geometry">
            <mxPoint y="20" as="offset" />
          </mxGeometry>
        </mxCell>
        <mxCell id="-0398Z63P85dClS6kvkM-41" value="ID_cliente" style="ellipse;whiteSpace=wrap;html=1;align=center;" parent="1" vertex="1">
          <mxGeometry x="490" y="310" width="100" height="40" as="geometry" />
        </mxCell>
        <mxCell id="-0398Z63P85dClS6kvkM-42" value="" style="endArrow=none;html=1;rounded=0;entryX=0;entryY=0.5;entryDx=0;entryDy=0;exitX=1;exitY=0.5;exitDx=0;exitDy=0;" parent="1" source="-0398Z63P85dClS6kvkM-41" target="-0398Z63P85dClS6kvkM-2" edge="1">
          <mxGeometry relative="1" as="geometry">
            <mxPoint x="590" y="339.6" as="sourcePoint" />
            <mxPoint x="750" y="339.6" as="targetPoint" />
          </mxGeometry>
        </mxCell>
        <mxCell id="-0398Z63P85dClS6kvkM-43" value="ID_producto" style="ellipse;whiteSpace=wrap;html=1;align=center;" parent="1" vertex="1">
          <mxGeometry x="520" y="460" width="100" height="40" as="geometry" />
        </mxCell>
        <mxCell id="-0398Z63P85dClS6kvkM-44" value="" style="endArrow=none;html=1;rounded=0;entryX=0;entryY=0.5;entryDx=0;entryDy=0;" parent="1" target="-0398Z63P85dClS6kvkM-3" edge="1">
          <mxGeometry relative="1" as="geometry">
            <mxPoint x="620" y="480" as="sourcePoint" />
            <mxPoint x="780" y="480" as="targetPoint" />
          </mxGeometry>
        </mxCell>
        <mxCell id="-0398Z63P85dClS6kvkM-45" value="ID_proveedor" style="ellipse;whiteSpace=wrap;html=1;align=center;" parent="1" vertex="1">
          <mxGeometry x="1160" y="380" width="100" height="40" as="geometry" />
        </mxCell>
        <mxCell id="-0398Z63P85dClS6kvkM-47" value="" style="endArrow=none;html=1;rounded=0;exitX=0.5;exitY=1;exitDx=0;exitDy=0;entryX=0.5;entryY=0;entryDx=0;entryDy=0;" parent="1" source="-0398Z63P85dClS6kvkM-45" target="-0398Z63P85dClS6kvkM-6" edge="1">
          <mxGeometry relative="1" as="geometry">
            <mxPoint x="1220" y="490" as="sourcePoint" />
            <mxPoint x="1380" y="490" as="targetPoint" />
          </mxGeometry>
        </mxCell>
        <mxCell id="wHQErFsewkTlaGZJXtER-1" value="Cantidad" style="ellipse;whiteSpace=wrap;html=1;align=center;" vertex="1" parent="1">
          <mxGeometry x="815" y="360" width="70" height="40" as="geometry" />
        </mxCell>
        <mxCell id="wHQErFsewkTlaGZJXtER-2" value="" style="endArrow=none;html=1;rounded=0;entryX=0;entryY=0.5;entryDx=0;entryDy=0;exitX=1;exitY=0;exitDx=0;exitDy=0;" edge="1" parent="1" source="-0398Z63P85dClS6kvkM-4" target="wHQErFsewkTlaGZJXtER-1">
          <mxGeometry relative="1" as="geometry">
            <mxPoint x="790" y="420" as="sourcePoint" />
            <mxPoint x="950" y="420" as="targetPoint" />
          </mxGeometry>
        </mxCell>
        <mxCell id="wHQErFsewkTlaGZJXtER-3" value="Fecha" style="ellipse;whiteSpace=wrap;html=1;align=center;" vertex="1" parent="1">
          <mxGeometry x="800" y="420" width="80" height="30" as="geometry" />
        </mxCell>
        <mxCell id="wHQErFsewkTlaGZJXtER-4" value="" style="endArrow=none;html=1;rounded=0;exitX=1;exitY=1;exitDx=0;exitDy=0;entryX=0;entryY=0.5;entryDx=0;entryDy=0;" edge="1" parent="1" source="-0398Z63P85dClS6kvkM-4" target="wHQErFsewkTlaGZJXtER-3">
          <mxGeometry relative="1" as="geometry">
            <mxPoint x="790" y="420" as="sourcePoint" />
            <mxPoint x="950" y="420" as="targetPoint" />
          </mxGeometry>
        </mxCell>
      </root>
    </mxGraphModel>
  </diagram>
</mxfile>
